<svg width="955" height="255" viewBox="0 0 955 255" fill="none" xmlns="http://www.w3.org/2000/svg">
<path d="M224.563 139.123L248.957 138.299C257.796 158.007 268.444 177.183 277.893 196.625C277.412 179.251 278.138 159.025 278.326 141.457C290.017 140.665 302.639 140.302 314.518 139.615C313.401 151.869 313.336 167.603 312.863 180.18C312.072 202.95 310.971 225.704 309.561 248.433L292.423 249.725C285.329 250.452 277.445 251.486 270.368 251.438C263.242 233.975 253.817 208.975 245.672 192.74C244.277 212.57 243.731 232.69 242.321 252.714C231.183 252.383 219.663 252.496 208.493 252.464C208.566 215.486 210.034 176.674 210.759 139.534L224.563 139.123Z" fill="#EB7F29"/>
<path d="M393.735 2.69632C402.533 2.29245 411.347 2.01782 420.16 1.8805C426.055 13.6572 431.819 25.5067 437.453 37.4127C439.272 41.2009 445.81 56.8224 448.697 57.3232C450.458 51.3056 450.23 13.1564 450.384 4.4167C461.938 3.90783 474.176 3.7463 485.786 3.4232C483.185 38.0426 482.875 76.3938 481.106 111.579C476.752 112.16 470.588 112.435 466.08 112.766L441.351 114.963C433.727 98.2915 424.645 70.3681 416.508 55.6432C415.782 75.7476 414.795 95.844 413.54 115.924C402.207 115.779 390.874 115.779 379.541 115.924C381.22 79.4309 380.886 39.957 381.677 3.16477L393.735 2.69632Z" fill="#F6C934" fill-opacity="0.988235"/>
<path d="M115.664 1.78397C116.547 1.75166 120.122 1.72743 120.664 2.5917C131.235 19.4249 138.555 43.2691 149.536 59.3269C150.148 41.0479 150.547 22.7688 150.751 4.48985C162.158 3.87598 174.779 3.84366 186.283 3.57711C185.191 12.7853 185.06 29.1903 184.701 38.7297C183.959 63.0101 182.94 87.2905 181.66 111.555C171.901 112.839 157.771 113.429 147.376 114.479L144.023 114.729C143.454 114.463 142.884 114.196 142.314 113.93C134.974 98.0173 124.216 69.4397 117.386 54.7631C116.123 74.5284 115.549 95.9737 114.571 115.933L80.5081 115.844C80.4706 78.3328 82.2888 40.6116 82.0793 3.0359L115.664 1.78397Z" fill="#F6C934"/>
<path d="M536.703 138.25C548.248 137.015 559.704 137.37 570.89 140.488C595.758 147.418 606.854 174.009 594.649 196.423C590.596 203.871 586.234 207.408 579.826 212.626C586.455 223.862 592.855 235.227 599.043 246.713C587.523 248.869 576.027 251.147 564.555 253.546L561.546 244.952C558.122 236.333 554.812 227.666 551.616 218.959L550.882 218.951C547.245 218.911 544.376 218.41 541.163 219.985C540.005 222.481 539.524 247.771 539.345 252.65L506.471 252.609L508.444 144.607C520.389 140.35 524.066 139.3 536.703 138.25ZM559.043 190.987C562.582 187.466 565.452 183.023 564.987 178.023C563.756 164.914 552.896 163.153 543.201 163.952C542.451 172.312 541.962 186.504 542.019 195.05C549.683 194.574 552.398 194.727 559.043 190.987Z" fill="#EB7F29"/>
<path d="M748.46 1.0002C776.067 1.21021 801.432 12.8658 798.497 45.4659C797.282 58.9228 789.626 67.3797 779.084 75.4005C784.555 83.7928 794.078 101.224 798.269 110.173C786.756 111.821 775.717 114.22 764.384 116.668C762.182 111.369 760.16 105.997 758.309 100.569C755.676 94.4388 753.328 88.2435 750.931 82.0239L740.209 82.3147C740.168 93.316 739.272 104.818 738.587 115.836C728.061 116.215 716.687 116.086 706.104 116.159L708.265 7.5509C721.131 2.35718 734.779 1.61408 748.46 1.0002ZM758.619 54.0683C765.085 47.0491 767.71 37.639 759.427 30.7006C754.062 26.2015 748.738 26.7427 742.296 27.3081C742.231 37.4694 742.093 47.9618 741.139 58.0908C749.463 57.9939 751.347 57.8647 758.619 54.0683Z" fill="#F6C934"/>
<path d="M552.398 2.5995L587.18 3.85961C586.732 39.1656 588.819 81.1273 589.618 116.918C576.972 117.451 564.335 118.105 551.697 118.881C551.501 106.304 551.404 93.728 551.412 81.1435L530.564 81.4181C530.605 93.0253 529.928 105.222 529.422 116.853L509.928 116.95H495.236C496.32 79.6977 497.176 42.4289 497.796 5.16813C509.74 5.51546 522.623 6.4847 534.624 7.15512C533.263 24.376 532.92 44.5371 532.007 62.1295L552.056 62.0649C551.559 43.2043 552.594 21.9528 552.398 2.5995Z" fill="#F6C934"/>
<path d="M250.034 0.127885C260.397 -0.469837 271.966 0.943664 281.065 6.15354C280.78 15.9029 280.185 25.6442 279.28 35.3531C256.728 27.6473 227.873 33.7538 229.675 63.9226C230.026 69.7868 234.135 77.9126 239.019 81.4505C242.696 84.1079 247.311 85.166 251.795 84.3664C256.483 83.5506 263.209 80.0531 261.685 74.4474C258.448 71.5557 248.207 72.8319 243.307 72.9854L243.854 49.763C258.432 48.9553 275.252 48.9877 290.009 48.6969C289.74 54.7629 289.903 61.5236 289.92 67.6463C289.911 78.1064 292.716 96.6277 286.014 104.778C279.01 113.114 264.294 118.073 253.613 118.889C174.037 124.963 172.708 7.25209 250.034 0.127885Z" fill="#F6C934" fill-opacity="0.988235"/>
<path d="M665.509 3.32638L667.49 3.39106C669.732 5.15999 674.078 21.4923 675.22 25.1837C684.172 53.6805 692.953 82.2339 701.571 110.828C689.105 112.669 675.546 114.01 662.827 115.771C660.992 109.366 659.524 104.083 658.163 97.5242C653.426 97.4757 640.739 96.9669 637.168 98.2754L636.312 100.198L632.333 115.642C621.286 115.125 605.436 112.936 593.833 111.765C602.615 77.4601 618.114 39.4725 626.08 5.08728C639.231 4.7238 652.374 4.13411 665.509 3.32638ZM648.534 73.0741C651.518 72.7752 652.072 73.2276 654.037 71.7172C653.467 66.7981 650.254 48.0021 646.871 45.3689C645.134 52.477 641.669 65.1826 640.813 71.9918C643.039 73.4053 645.745 73.0418 648.534 73.0741Z" fill="#F6C934"/>
<path d="M748.403 140.827L762.696 140.043C772.594 173.96 787.515 213.878 795.733 247.666C784.775 249.548 769.047 250.986 757.69 252.335C755.798 246.422 754.005 239.532 752.292 233.498L734.143 233.264C729.789 234.104 728.004 248.167 727.066 252.456C714.714 251.236 701.082 250.162 688.917 248.247C696.728 220.566 705.802 193.039 714.045 165.471C716.369 157.692 718.913 149.664 721.685 142.039L748.403 140.827ZM735.48 209.347C738.375 209.395 741.514 209.525 744.384 209.412L747.368 208.959C749.48 205.179 744.832 183.871 741.954 181.432C739.312 189.816 737.6 200.502 735.48 209.347Z" fill="#EB7F29"/>
<path d="M881.025 4.94204C894.926 4.61895 908.86 3.65774 922.835 3.31849C928.909 24.9738 936.214 46.7664 942.664 68.341C946.145 80.0047 950.524 92.0238 953.312 103.841C952.888 105.279 952.497 106.725 952.113 108.17C946.047 110.69 926.504 113.267 919.843 111.522C914.51 110.125 917.943 98.5907 912.497 96.2886C906.227 93.2596 897.878 94.6731 891.225 95.19C886.21 98.6633 887.034 109.43 884.881 112.75C884.433 113.445 875.375 113.566 872.611 114.236L848.029 111.91C859.215 76.3134 870.214 40.66 881.025 4.94204ZM903.022 73.2278C905.933 72.9613 906.797 73.4217 908.526 71.7335C907.816 67.2587 904.327 47.453 901.49 45.5145C900.055 49.6743 895.66 67.6706 895.415 71.9839C897.649 73.6317 900.079 73.2117 903.022 73.2278Z" fill="#F6C934"/>
<path d="M609.659 213.418C618.644 217.335 643.772 227.642 653.939 216.729C655.007 215.582 654.64 214.944 654.388 213.531C646.993 203.765 617.804 210.687 610.417 193.564C592.447 151.909 635.431 128.089 671.746 138.888C675.627 139.114 678.676 140.819 682.125 142.579C681.269 152.781 680.527 163.314 679.165 173.435C675.317 172.078 670.98 170.43 667.074 169.42C661.563 168.871 637.241 165.567 640.821 177.482C642.035 181.286 647.653 182.183 651.102 182.223C666.308 182.441 681.823 184.275 687.36 200.946C694.029 221.051 682.843 245.897 661.758 252.367C642.451 258.303 624.261 253.522 606.593 244.806C607.18 234.023 608.379 224.104 609.659 213.418Z" fill="#EB7F29"/>
<path d="M386.283 139.583C397.779 139.955 410.401 141.11 421.954 141.934C415.961 161.699 410.066 183.637 404.661 203.572C400.038 219.864 394.934 236.939 390.963 253.312C378.236 253.708 366.193 254.475 353.344 254.556C342.394 217.756 328.615 181.036 318.114 143.945C328.436 142.265 341.448 141.094 352.023 139.834C352.17 139.858 352.325 139.85 352.463 139.914C356.597 141.845 364.914 195.107 369.218 203.604L370.564 203.879C373.548 198.637 384.237 148.468 386.283 139.583Z" fill="#EB7F29"/>
<path d="M428.093 139.171C452.284 139.43 476.483 139.494 500.674 139.365C499.973 149.025 499.337 158.694 498.758 168.371L464.123 169.413C463.797 173.152 463.674 177.595 463.479 181.407C471.281 181.601 480.119 181.343 488.004 181.286C487.498 188.83 487.441 197.594 487.229 205.244C478.742 205.219 470.262 205.284 461.775 205.429C461.522 209.622 460.299 214.67 462.003 218.014C464.865 219.807 465.117 219.217 468.844 219.234C478.089 219.145 487.327 219.112 496.565 219.145C495.864 230.469 495.219 240.986 495.13 252.359C472.504 252.221 448.738 253.215 425.843 253.352C426.34 215.308 427.873 177.264 428.093 139.171Z" fill="#EB7F29"/>
<path d="M1.94865 2.74505C24.2764 1.98578 51.5459 2.64006 74.2178 2.76122L72.9654 31.1853L37.722 32.2596L37.1489 44.4321C45.1684 44.5856 53.7318 44.3918 61.7946 44.3595L60.9165 68.2199L35.2116 68.6641C35.0649 72.2343 34.3319 79.9643 35.4864 82.8964C41.1692 82.6864 65.6527 81.2728 69.7041 83.2114C70.0906 84.9803 70.1003 84.3422 69.8696 86.1192C70.2618 93.7281 69.0698 107.508 68.5741 115.561C45.7122 115.707 22.8528 116.118 0 116.781C0.338361 78.7931 1.74726 40.7489 1.94865 2.74505Z" fill="#F6C934"/>
<path d="M35.4848 82.8961C41.1677 82.6861 65.6512 81.2726 69.7025 83.2111C70.089 84.9801 70.0988 84.3419 69.8681 86.119C64.1648 82.4195 39.3878 87.2336 34.2569 83.5988L35.4848 82.8961Z" fill="#F7D176"/>
<path d="M350.531 2.64792L374.217 2.70441C373.409 12.3326 372.643 21.5731 372.235 31.2174L337.266 32.2836L336.793 44.8115L361.065 44.2543C360.935 52.2589 360.698 60.2635 360.372 68.2681C352.088 68.5347 343.356 68.5185 335.04 68.6397L334.461 82.5408L369.887 82.2177L368.64 102.201L367.987 115.601C345.696 115.504 322.035 116.312 299.638 116.724C300.103 78.7767 300.796 40.8295 301.701 2.89028C316.295 2.16332 335.578 2.68023 350.531 2.64792Z" fill="#F6C934" fill-opacity="0.988235"/>
<path d="M182.174 142.443L199.646 141.603C196.246 177.539 195.798 214.298 192.439 250.582L176.051 251.139L159.989 251.834L159.491 143.436C167.058 143.161 174.616 142.83 182.174 142.443Z" fill="#EB7F29"/>
<path d="M840.47 5.00687C843.414 4.69185 843.781 4.57063 846.626 5.14412C847.189 7.85002 845.868 24.5944 845.705 28.7138C844.62 56.9764 841.824 85.4651 840.633 113.647L817.714 115.125C814.412 115.311 811.42 115.836 808.469 114.592C807.629 110.343 807.792 82.5088 807.89 77.1293C808.322 54.1897 807.197 29.6184 808.085 6.87268C818.888 6.36381 829.683 5.7419 840.47 5.00687Z" fill="#F6C934"/>
<path d="M872.611 114.236C875.375 113.566 884.433 113.445 884.881 112.75C887.034 109.43 886.21 98.6633 891.225 95.19C897.878 94.6731 906.227 93.2596 912.497 96.2886C917.943 98.5907 914.51 110.125 919.843 111.522C926.504 113.267 946.047 110.69 952.113 108.17C952.497 106.725 952.888 105.279 953.312 103.841C954.193 106.103 955.375 108.186 954.885 110.48C950.874 112.047 923.161 115.254 917.013 115.924C915.448 109.907 913.573 103.275 912.407 97.2174C905.403 97.282 898.285 97.4113 891.29 97.3951L886.887 115.86C882.215 115.343 877.233 114.883 872.611 114.236Z" fill="#F7D176" fill-opacity="0.988235"/>
</svg>
