<svg width="282" height="255" viewBox="0 0 282 255" fill="none" xmlns="http://www.w3.org/2000/svg">
<path d="M68.657 0.0620558C82.6989 -0.958945 88.7784 10.7922 82.2531 22.5275C84.4355 26.5847 86.1409 32.2298 88.7129 35.8978C89.1276 36.4905 96.1205 36.0782 97.3613 36.1904C104.46 36.8312 107.553 38.8283 112.095 43.7183C131.765 42.596 159.016 32.3398 170.436 54.7133C174.698 63.0621 175.898 73.4258 180.472 81.5632C181.145 82.7603 186.433 85.6501 187.938 87.0743C194.367 93.1499 197.045 103.103 197.834 111.701C199.143 132.456 192.618 132.89 179.399 144.719C177.918 146.045 175.324 148.29 174.031 149.831L173.8 150.11C174.071 153.228 176.013 162.399 177.045 165.172C185.366 169.093 188.883 166.408 194.38 175.405C203.143 179.6 203.891 182.317 205.079 191.907C206.61 204.249 207.533 219.467 195.648 227.255C179.736 237.682 161.641 244.563 143.181 248.935C109.511 255.779 87.0481 260.884 56.6634 240.815C39.3916 229.409 36.7385 222.113 32.246 202.233C31.3918 198.449 30.2569 194.141 28.9849 190.456C27.8376 187.541 25.013 184.265 23.0801 180.814C18.519 180.397 14.4255 179.445 11.1301 175.904C1.26274 165.303 -2.69823 147.311 1.92057 133.582C3.06787 130.175 5.57446 127.878 7.96258 125.416C6.78411 118.393 5.02576 109.815 7.17383 102.905C10.3133 92.8095 18.3194 84.471 25.0629 76.6683C34.2132 66.083 45.4087 62.853 57.792 57.8106C58.559 56.3259 59.3228 53.7475 60.0336 52.0284C62.7117 45.568 67.5908 43.4346 73.6765 40.9632C72.3764 36.6729 71.2104 32.3436 70.1753 27.9816C64.523 26.3204 59.4943 24.2248 58.0134 17.9826C55.884 9.00174 59.9307 2.30913 68.657 0.0620558Z" fill="#151A3E"/>
<path d="M133.152 45.9423C138.96 45.213 145.513 44.4943 151.265 45.6347C161.947 47.7524 168.104 56.1884 170.006 66.438C170.77 67.8938 172.307 73.3438 172.883 75.2842C174.645 81.1596 176.369 87.0466 178.055 92.9438C179.829 99.1948 182.386 107.854 183.627 114.086C184.378 116.193 185.784 122.312 186.09 124.58C185.862 128.531 182.617 133.338 179.306 135.376L178.975 135.267C178.582 133.821 178.592 132.528 178.529 131.035C179.867 130.377 181.101 129.918 182.009 128.745L182.208 128.048C178.969 124.624 145.897 130.759 140.36 131.932C113.916 137.532 84.2578 144.939 60.1303 157.255C55.4943 159.998 52.7072 161.903 49.39 166.34C47.6566 169.147 46.5498 171.692 45.0627 174.173C44.754 174.964 44.1897 176.503 43.641 177.118C40.62 180.488 31.2608 188.358 28.642 180.718C28.4362 180.197 28.4736 180.485 28.7667 179.809C30.2476 178.838 33.6583 178.973 35.5102 178.458C45.2653 175.746 43.694 156.804 42.0541 149.5C40.8351 149.896 40.5233 149.931 40.2552 151.204L39.9528 151.314C39.8094 150.548 39.6785 149.989 39.4789 149.236L39.1609 149.353C39.4072 151.468 39.7564 153.805 39.9528 155.895C39.8406 156.06 39.7283 156.225 39.6161 156.391C36.0277 157.201 31.3356 157.87 27.9561 159.125C28.0122 163.731 28.2024 166.615 27.1798 171.128C26.5064 168.892 27.6599 166.561 26.9522 163.825L26.603 163.63C26.6248 164.755 26.8712 168.606 25.7395 169.082L25.6677 168.376C25.5368 168.679 25.1471 170.668 25.0037 171.173C21.6085 183.095 12.2899 171.132 9.37487 166.09C5.70851 158.414 3.45135 149.752 4.70465 141.234C4.63606 137.375 6.72176 129.822 11.9999 131.283C13.0132 131.298 13.3717 131.486 14.0794 131.046L13.2657 130.105L13.3281 129.442L12.8978 128.924L13.0069 128.455L14.2977 127.853C15.1644 127.002 14.996 127.415 15.0677 126.34C14.201 125.868 14.1418 126.101 12.901 126.277L12.5237 125.818C12.7357 125.375 12.9197 124.977 13.113 124.525L12.6858 123.968C11.657 121.457 10.7498 114.477 10.6438 111.85C10.3725 104.904 13.0693 98.6332 17.7458 93.5809C19.4854 92.7556 18.6998 91.0246 20.6888 89.7749C21.3217 89.1787 22.2414 87.6612 22.759 86.8743C22.7371 84.2161 29.9389 77.4827 31.7939 75.2262C32.2429 74.6802 34.5406 74.9133 35.3044 74.9473C37.2155 70.9478 39.931 69.8133 43.747 67.9131C45.2123 67.1829 49.3775 65.254 50.7742 65.8802C56.6572 63.9039 62.4155 61.606 68.3671 59.8215C70.1379 59.291 72.0802 58.6973 73.7326 57.8967L73.7762 57.6199C74.6554 57.6545 74.9765 58.059 75.6718 58.6225C76.0272 58.4081 76.0428 58.4464 76.3109 58.1479C76.2236 57.8078 76.2672 57.8452 76.3109 57.4734C78.7614 56.1869 93.2366 52.949 96.85 52.068C96.7845 51.7946 96.8313 51.7367 96.8749 51.4325C99.1321 50.9934 100.822 50.1668 103.905 49.4653C112.903 47.4208 123.016 46.4497 132.248 45.4162C132.613 45.6287 132.915 45.8042 133.152 45.9423Z" fill="#EF8C29"/>
<path d="M120.307 83.7015C126.929 65.4516 146.346 57.6155 162.776 69.7173C165.363 71.6247 167.125 73.9029 169.055 76.4249L169.65 77.5864C172.135 82.794 173.504 86.6277 173.65 92.563L174.302 93.3284C174.751 94.859 176.244 99.9166 176.459 101.303C173.039 101.232 175.359 99.1845 171.471 102.51C170.261 104.995 169.008 107.173 167.312 109.361C166.844 109.965 165.432 111.417 165.136 111.933C160.968 115.025 157.354 117.647 152.101 118.704C147.92 119.35 144.12 119.599 139.989 118.46C139.493 118.345 138.998 118.215 138.508 118.072C130.976 115.85 125.514 110.045 121.838 103.356C118.705 96.2805 118.639 91.2378 120.307 83.7015Z" fill="#151A3E"/>
<path d="M173.65 92.563L174.302 93.3284C174.751 94.859 176.244 99.9166 176.459 101.303C173.039 101.232 175.359 99.1845 171.471 102.51C172.759 98.5332 173.285 96.8175 173.65 92.563Z" fill="#EB7F29"/>
<path d="M134.848 69.6665C142.732 65.7343 152.491 65.2434 159.864 70.6738C162.04 72.0928 163.668 73.6293 165.264 75.6866C168.353 79.5627 169.837 83.0178 170.607 87.9566C172.197 97.3261 168.02 105.905 160.494 111.394C156.509 114.732 151.746 115.856 146.639 116.135C144.868 116.027 142.776 115.992 141.111 115.478C138.901 115.093 137.015 114.344 135.016 113.37C130.405 110.623 128.055 107.618 125.08 103.31C123.83 103.02 122.714 102.502 122.125 101.318C122.427 100.168 122.165 100.549 123.032 99.8073L123.188 100.05L123.553 99.7854C121.143 92.0456 122.031 83.4821 127.016 76.9422C128.32 74.5443 132.388 70.9393 134.848 69.6665Z" fill="#6C9DAB"/>
<path d="M136.859 77.967C139.874 77.7569 141.414 75.0296 143.474 74.6793C145.018 74.4172 150.034 75.0187 151.926 75.1044C154.299 75.3063 155.502 77.8152 157.074 78.5582C164.734 82.176 164.996 97.3722 159.181 102.501C158.707 104.715 156.279 107.343 154.015 107.675C155.1 107.83 156.353 108.079 157.423 107.985C156.223 108.83 154.246 109.561 152.824 109.884C147.621 111.034 142.174 110.074 137.679 107.215C134.281 105.065 130.608 101.087 129.729 97.0942C127.833 92.6771 127.977 87.3143 129.673 82.837C129.944 83.287 129.847 83.1041 130.075 83.57L130.234 83.8951L131.256 82.779L131.668 83.1159L132.17 83.0293C132.84 82.2224 133.192 81.8631 134.059 81.2721C134.184 80.7654 136.31 78.5953 136.859 77.967Z" fill="#1A203D"/>
<path d="M131.256 82.779L131.668 83.1159L132.17 83.0293C132.84 82.2224 133.192 81.8631 134.059 81.2721C134.016 82.1582 134.072 82.9445 133.629 83.7062C133.972 87.5777 132.338 89.1008 132.865 94.4997C133.286 95.9243 133.348 96.4092 132.977 97.855C131.509 96.2643 132.291 96.159 130.383 95.4618L129.673 93.6819L129.551 93.7585C129.782 94.9584 130.143 96.0003 129.729 97.0942C127.833 92.6771 127.977 87.3143 129.673 82.837C129.944 83.287 129.847 83.1041 130.075 83.57L130.234 83.8951L131.256 82.779Z" fill="#261D37"/>
<path d="M132.865 94.4997C132.706 95.1027 132.837 94.8235 132.357 95.2772C132.173 94.226 131.958 93.019 131.973 91.9634C132.014 88.8605 131.462 86.0939 133.629 83.7062C133.972 87.5777 132.338 89.1008 132.865 94.4997Z" fill="#47373D"/>
<path d="M130.383 95.4618C132.291 96.159 131.509 96.2643 132.977 97.855C133.295 98.0928 133.542 98.1985 133.682 98.4939C134.118 100.19 135.643 101.824 136.703 103.331L136.918 103.436L137.688 105.222C135.836 104.154 135.016 102.778 133.542 101.369C131.472 99.3934 131.419 97.9413 130.383 95.4618Z" fill="#281428"/>
<path d="M154.015 107.675C152.718 108.083 147.73 109.171 146.667 108.725C148.045 107.377 155.587 107.907 159.181 102.501C158.707 104.715 156.279 107.343 154.015 107.675Z" fill="#151A3E"/>
<path d="M133.682 98.4939C135.846 101.355 138.932 103.768 141.819 105.933C139.375 105.446 138.854 104.682 136.918 103.436L136.703 103.331C135.643 101.824 134.118 100.19 133.682 98.4939Z" fill="#47373D"/>
<path d="M142.661 77.9171C144.31 74.9816 149.417 76.7864 151.783 77.9156C153.102 78.0502 153.248 78.1191 154.364 78.8393C156.887 79.716 157.61 79.8002 158.707 82.4197C159.618 83.4949 159.736 83.3169 159.979 84.6172C159.783 85.1162 159.624 85.4827 159.484 86.0038L159.275 87.7456L159.306 88.0289L160.129 88.5232C160.329 90.0906 159.783 90.7423 159.774 91.9001C159.717 99.2562 154.779 104.074 147.637 104.967C146.333 105.13 143.194 104.82 143.107 103.148L142.87 102.943C142.187 103.216 142.24 103.216 141.507 103.145C140.067 102.213 134.265 97.6353 134.358 95.9006C134.729 88.9963 132.644 78.4429 142.661 77.9171Z" fill="#F7D176"/>
<path d="M142.661 77.9171C144.31 74.9816 149.417 76.7864 151.783 77.9156C153.102 78.0502 153.248 78.1191 154.364 78.8393C156.887 79.716 157.61 79.8002 158.707 82.4197C159.618 83.4949 159.736 83.3169 159.979 84.6172C159.783 85.1162 159.624 85.4827 159.484 86.0038L159.275 87.7456C158.698 87.1532 157.875 86.7356 157.149 86.3101L156.656 86.1004C155.106 84.2242 143.964 80.8096 141.445 80.3633C140.603 80.1686 138.904 80.3281 137.972 80.3752C136.669 81.6845 136.759 82.9268 136.485 84.6964L137.28 84.4545L138.496 85.3365L138.839 86.494C139.964 91.6882 141.143 97.4542 142.564 102.526L142.87 102.943C142.187 103.216 142.24 103.216 141.507 103.145C140.067 102.213 134.265 97.6353 134.358 95.9006C134.729 88.9963 132.644 78.4429 142.661 77.9171Z" fill="#5E4A41"/>
<path d="M138.839 86.494C139.964 91.6882 141.143 97.4542 142.564 102.526C140.893 102.349 136.709 97.8182 136.089 96.1661C136.245 95.7133 136.223 95.8856 136.245 95.435C136.376 92.6874 137.426 89.3666 138.234 86.7374L138.839 86.494Z" fill="#755E3C"/>
<path d="M142.661 77.9171C144.31 74.9816 149.417 76.7864 151.783 77.9156C153.102 78.0502 153.248 78.1191 154.364 78.8393C156.887 79.716 157.61 79.8002 158.707 82.4197C159.618 83.4949 159.736 83.3169 159.979 84.6172C159.783 85.1162 159.624 85.4827 159.484 86.0038C158.754 84.4981 155 80.9782 153.993 80.6211C150.215 78.4491 147.25 77.003 142.661 77.9171Z" fill="#47373D"/>
<path d="M141.445 80.3633C145.965 79.3595 155.693 81.6795 157.806 85.8732L157.149 86.3101L156.656 86.1004C155.106 84.2242 143.964 80.8096 141.445 80.3633Z" fill="#6B5540"/>
<path d="M136.485 84.6964L137.28 84.4545L138.496 85.3365L138.839 86.494L138.234 86.7374C137.426 89.3666 136.376 92.6874 136.245 95.435C136.223 95.8856 136.245 95.7133 136.089 96.1661C134.932 94.5202 136.217 87.0369 136.485 84.6964Z" fill="#6B5540"/>
<path d="M159.306 88.0289L160.129 88.5232C160.329 90.0906 159.783 90.7423 159.774 91.9001C159.717 99.2562 154.779 104.074 147.637 104.967C146.333 105.13 143.194 104.82 143.107 103.148L143.515 103.303C144.123 103.042 144.881 102.627 145.485 102.315C148.073 99.4519 154.555 93.4646 157.579 90.967L159.371 89.1073L159.306 88.0289Z" fill="#5E4A41"/>
<path d="M145.485 102.315C148.073 99.4519 154.555 93.4646 157.579 90.967C157.507 95.593 153.694 100.027 149.404 101.508L148.316 101.122C147.674 101.671 147.381 101.943 146.81 102.568C146.084 102.615 146.121 102.653 145.485 102.315Z" fill="#755E3C"/>
<path d="M159.371 89.1073C159.041 94.2429 157.788 96.9552 153.972 100.528C151.796 102.563 146.181 104.834 143.515 103.303C144.123 103.042 144.881 102.627 145.485 102.315C146.121 102.653 146.084 102.615 146.81 102.568C147.381 101.943 147.674 101.671 148.316 101.122L149.404 101.508C153.694 100.027 157.507 95.593 157.579 90.967L159.371 89.1073Z" fill="#6B5540"/>
<path d="M137.972 80.3752C138.904 80.3281 140.603 80.1686 141.445 80.3633C143.964 80.8096 155.106 84.2242 156.656 86.1004C151.309 84.8201 144.69 82.122 139.244 81.0668C138.751 80.9708 138.561 81.3501 138.112 81.792C137.682 82.9838 138.153 84.0472 138.496 85.3365L137.28 84.4545L136.485 84.6964C136.759 82.9268 136.669 81.6845 137.972 80.3752Z" fill="#755E3C"/>
<path d="M129.673 82.837C130.567 79.8382 133.077 76.3052 135.687 74.5602C141.856 70.436 146.807 70.652 153.61 71.8444L157.074 73.4251C160.59 75.9512 162.274 77.4752 164.428 81.1715C164.793 81.9996 165.529 83.5463 165.812 84.3423C168.079 92.7971 166.286 104.087 157.423 107.985C156.353 108.079 155.1 107.83 154.015 107.675C156.279 107.343 158.707 104.715 159.181 102.501C164.996 97.3722 164.734 82.176 157.074 78.5582C155.502 77.8152 154.299 75.3063 151.926 75.1044C150.034 75.0187 145.018 74.4172 143.474 74.6793C141.414 75.0296 139.874 77.7569 136.859 77.967C136.31 78.5953 134.184 80.7654 134.059 81.2721C133.192 81.8631 132.84 82.2224 132.17 83.0293L131.668 83.1159L131.256 82.779L130.234 83.8951L130.075 83.57C129.847 83.1041 129.944 83.287 129.673 82.837Z" fill="#191D3D"/>
<path d="M146.056 74.0965C148.924 73.8699 149.295 73.8799 151.926 75.1044C150.034 75.0187 145.018 74.4172 143.474 74.6793C141.414 75.0296 139.874 77.7569 136.859 77.967C136.31 78.5953 134.184 80.7654 134.059 81.2721C133.192 81.8631 132.84 82.2224 132.17 83.0293L131.668 83.1159L131.256 82.779C131.487 81.0381 132.348 80.412 133.573 79.165L134.034 79.2329C134.754 78.2238 136.101 77.1679 137.071 76.3276C138.586 74.5471 145.055 74.6091 146.056 74.0965Z" fill="#281428"/>
<path d="M133.573 79.165C134.078 77.8495 135.786 76.1107 136.931 75.2848C140.528 72.689 142.39 73.6894 146.056 74.0965C145.055 74.6091 138.586 74.5471 137.071 76.3276C136.101 77.1679 134.754 78.2238 134.034 79.2329L133.573 79.165Z" fill="#151A3E"/>
<path d="M123.553 99.7854C121.143 92.0456 122.031 83.4821 127.016 76.9422C126.67 78.6685 125.37 80.1012 125.221 81.0892C124.129 88.2281 124.55 96.4301 128.441 102.442C132.734 109.078 139.509 113.781 147.091 114.116L147.128 114.533C145.838 114.461 142.408 115.083 141.111 115.478C138.901 115.093 137.015 114.344 135.016 113.37C130.405 110.623 128.055 107.618 125.08 103.31C123.83 103.02 122.714 102.502 122.125 101.318C122.427 100.168 122.165 100.549 123.032 99.8073L123.188 100.05L123.553 99.7854Z" fill="#467589"/>
<path d="M123.553 99.7854L125.08 103.31C123.83 103.02 122.714 102.502 122.125 101.318C122.427 100.168 122.165 100.549 123.032 99.8073L123.188 100.05L123.553 99.7854Z" fill="#191D3D"/>
<path d="M157.074 73.4251C157.295 73.3186 157.622 73.0459 157.834 72.8875C157.591 72.1832 156.837 72.2655 155.705 71.6864L155.93 71.2289C156.643 71.093 157.105 71.0316 157.828 70.9543L157.844 70.3163C158.661 70.604 158.997 70.6579 159.864 70.6738C162.04 72.0928 163.668 73.6293 165.264 75.6866C168.353 79.5627 169.837 83.0178 170.607 87.9566C168.54 86.7546 168.11 84.2747 165.812 84.3423C165.529 83.5463 164.793 81.9996 164.428 81.1715C162.274 77.4752 160.59 75.9512 157.074 73.4251Z" fill="#82D6E8"/>
<path d="M165.264 75.6866C168.353 79.5627 169.837 83.0178 170.607 87.9566C168.54 86.7546 168.11 84.2747 165.812 84.3423C165.529 83.5463 164.793 81.9996 164.428 81.1715C165.329 78.9297 165.123 79.2604 163.509 77.8111L163.802 77.2748L164.712 77.6048C165.398 76.9993 165.167 76.9588 165.264 75.6866Z" fill="#A1CCD5"/>
<path d="M134.848 69.6665C142.732 65.7343 152.491 65.2434 159.864 70.6738C158.997 70.6579 158.661 70.604 157.844 70.3163L157.828 70.9543C157.105 71.0316 156.643 71.093 155.93 71.2289L155.705 71.6864C156.837 72.2655 157.591 72.1832 157.834 72.8875C157.622 73.0459 157.295 73.3186 157.074 73.4251L153.61 71.8444L153.463 71.4848C147.266 68.7739 141.339 70.1219 135.054 69.6827L134.848 69.6665Z" fill="#A1CCD5"/>
<path d="M147.091 114.116C153.713 114.153 154.767 112.589 160.494 111.394C156.509 114.732 151.746 115.856 146.639 116.135C144.868 116.027 142.776 115.992 141.111 115.478C142.408 115.083 145.838 114.461 147.128 114.533L147.091 114.116Z" fill="#45738D"/>
<path d="M17.7458 93.5809C19.4854 92.7556 18.6998 91.0246 20.6888 89.7749C17.4901 98.9019 22.8961 111.07 25.2468 120.648C37.8796 127.003 43.7283 146.025 43.9839 159.325C44.6106 160.304 44.436 163.072 44.383 164.367C44.9504 165.43 45.2248 166.276 46.2474 166.821C47.9621 167.003 47.9839 166.578 49.39 166.34C47.6566 169.147 46.5498 171.692 45.0627 174.173C44.754 174.964 44.1897 176.503 43.641 177.118C40.62 180.488 31.2608 188.358 28.642 180.718C28.4362 180.197 28.4736 180.485 28.7667 179.809C30.2476 178.838 33.6583 178.973 35.5102 178.458C45.2653 175.746 43.694 156.804 42.0541 149.5C40.8351 149.896 40.5233 149.931 40.2552 151.204L39.9528 151.314C39.8094 150.548 39.6785 149.989 39.4789 149.236L39.1609 149.353C39.4072 151.468 39.7564 153.805 39.9528 155.895C39.8406 156.06 39.7283 156.225 39.6161 156.391C36.0277 157.201 31.3356 157.87 27.9561 159.125C28.0122 163.731 28.2024 166.615 27.1798 171.128C26.5064 168.892 27.6599 166.561 26.9522 163.825L26.603 163.63C26.6248 164.755 26.8712 168.606 25.7395 169.082L25.6677 168.376C25.5368 168.679 25.1471 170.668 25.0037 171.173C21.6085 183.095 12.2899 171.132 9.37487 166.09C5.70851 158.414 3.45135 149.752 4.70465 141.234C4.63606 137.375 6.72176 129.822 11.9999 131.283C13.0132 131.298 13.3717 131.486 14.0794 131.046L13.2657 130.105L13.3281 129.442L12.8978 128.924L13.0069 128.455L14.2977 127.853C15.1644 127.002 14.996 127.415 15.0677 126.34C14.201 125.868 14.1418 126.101 12.901 126.277L12.5237 125.818C12.7357 125.375 12.9197 124.977 13.113 124.525L12.6858 123.968C11.657 121.457 10.7498 114.477 10.6438 111.85C10.3725 104.904 13.0693 98.6332 17.7458 93.5809Z" fill="#2E131D"/>
<path d="M11.9999 131.283C13.0132 131.298 13.3717 131.486 14.0794 131.046L13.2657 130.105L13.3281 129.442C15.7941 130.945 16.8541 131.975 18.6655 134.221C20.2836 136.333 21.6772 138.492 22.7746 140.924C25.621 147.017 26.9834 152.449 27.9561 159.125C28.0122 163.731 28.2024 166.615 27.1798 171.128C26.5064 168.892 27.6599 166.561 26.9522 163.825L26.603 163.63C26.6248 164.755 26.8712 168.606 25.7395 169.082L25.6677 168.376C25.5368 168.679 25.1471 170.668 25.0037 171.173C21.6085 183.095 12.2899 171.132 9.37487 166.09C5.70851 158.414 3.45135 149.752 4.70465 141.234C4.63606 137.375 6.72176 129.822 11.9999 131.283Z" fill="#151A3E"/>
<path d="M11.9999 131.283C13.0132 131.298 13.3717 131.486 14.0794 131.046L13.2657 130.105L13.3281 129.442C15.7941 130.945 16.8541 131.975 18.6655 134.221C20.2836 136.333 21.6772 138.492 22.7746 140.924C25.621 147.017 26.9834 152.449 27.9561 159.125C28.0122 163.731 28.2024 166.615 27.1798 171.128C26.5064 168.892 27.6599 166.561 26.9522 163.825L26.603 163.63C26.6248 164.755 26.8712 168.606 25.7395 169.082L25.6677 168.376C25.5368 168.679 25.1471 170.668 25.0037 171.173C21.6085 183.095 12.2899 171.132 9.37487 166.09C10.3445 165.707 10.3726 165.608 11.074 164.787C13.3904 168.155 18.5034 172.43 20.6265 166.419C22.9959 159.716 20.9009 150.796 18.1947 144.544L18.9336 144.949C20.321 144.057 20.1059 144.156 21.6647 143.867C19.7847 138.587 16.4488 134.595 11.9999 131.283Z" fill="#467589"/>
<path d="M11.9999 131.283C13.0132 131.298 13.3717 131.486 14.0794 131.046L13.2657 130.105L13.3281 129.442C15.7941 130.945 16.8541 131.975 18.6655 134.221C20.2836 136.333 21.6772 138.492 22.7746 140.924C25.621 147.017 26.9834 152.449 27.9561 159.125C28.0122 163.731 28.2024 166.615 27.1798 171.128C26.5064 168.892 27.6599 166.561 26.9522 163.825L26.603 163.63C26.6248 164.755 26.8712 168.606 25.7395 169.082L25.6677 168.376C26.338 161.91 25.1689 149.182 21.6647 143.867C19.7847 138.587 16.4488 134.595 11.9999 131.283Z" fill="#1A203D"/>
<path d="M4.70465 141.234C4.63606 137.375 6.72176 129.822 11.9999 131.283C16.4488 134.595 19.7847 138.587 21.6647 143.867C20.1059 144.156 20.321 144.057 18.9336 144.949L18.1947 144.544C14.6313 138.018 9.18471 132.366 6.61576 143.58C5.96417 141.747 6.0733 143.801 4.70465 141.234Z" fill="#497386"/>
<path d="M4.70465 141.234C6.0733 143.801 5.96417 141.747 6.61576 143.58C5.96417 151.182 7.2736 158.104 11.074 164.787C10.3726 165.608 10.3445 165.707 9.37487 166.09C5.70851 158.414 3.45135 149.752 4.70465 141.234Z" fill="#45738D"/>
<path d="M10.8963 139.742C17.3374 140.369 22.3693 161.014 17.2626 166.411C10.3725 166.381 6.02029 146.138 10.8963 139.742Z" fill="#EF8C29"/>
<path d="M17.7458 93.5809C17.1347 102.087 21.5805 112.067 23.7504 120.637C24.5579 121.068 26.5688 122.36 27.1362 122.609C25.8517 123.448 22.6 124.2 20.9414 124.73L21.0193 125.214C18.7933 126.132 16.5548 127.012 14.2977 127.853C15.1644 127.002 14.996 127.415 15.0677 126.34C14.201 125.868 14.1418 126.101 12.901 126.277L12.5237 125.818C12.7357 125.375 12.9197 124.977 13.113 124.525L12.6858 123.968C11.657 121.457 10.7498 114.477 10.6438 111.85C10.3725 104.904 13.0693 98.6332 17.7458 93.5809Z" fill="#C85333"/>
<path d="M12.6858 123.968C15.5416 122.54 20.6203 121.194 23.7504 120.637C24.5579 121.068 26.5688 122.36 27.1362 122.609C25.8517 123.448 22.6 124.2 20.9414 124.73L21.0193 125.214C18.7933 126.132 16.5548 127.012 14.2977 127.853C15.1644 127.002 14.996 127.415 15.0677 126.34C14.201 125.868 14.1418 126.101 12.901 126.277L12.5237 125.818C12.7357 125.375 12.9197 124.977 13.113 124.525L12.6858 123.968Z" fill="#191D3D"/>
<path d="M34.974 136.874C37.4494 142.277 37.4276 144.327 39.1048 149.085L39.1609 149.353C39.4072 151.468 39.7564 153.805 39.9528 155.895C39.8406 156.06 39.7283 156.225 39.6161 156.391C36.0277 157.201 31.3356 157.87 27.9561 159.125C26.9834 152.449 25.621 147.017 22.7746 140.924C24.2648 139.905 33.2156 137.093 34.974 136.874Z" fill="#6C9DAB"/>
<path d="M21.0193 125.214C25.8673 124.16 28.4736 125.988 31.1018 130.14C32.6887 132.354 33.8204 134.416 34.974 136.874C33.2156 137.093 24.2648 139.905 22.7746 140.924C21.6772 138.492 20.2836 136.333 18.6655 134.221C16.8541 131.975 15.7941 130.945 13.3281 129.442L12.8978 128.924L13.0069 128.455L14.2977 127.853C16.5548 127.012 18.7933 126.132 21.0193 125.214Z" fill="#6C9DAB"/>
<path d="M18.6655 134.221C20.5891 133.167 28.5921 130.898 31.1018 130.14C32.6887 132.354 33.8204 134.416 34.974 136.874C33.2156 137.093 24.2648 139.905 22.7746 140.924C21.6772 138.492 20.2836 136.333 18.6655 134.221Z" fill="#A1CCD5"/>
<path d="M27.1362 122.609C28.7729 122.89 33.2374 128.095 34.2226 129.543C36.5764 133.006 39.7907 139.605 40.5296 143.67C41.0284 145.525 41.6551 147.645 42.0541 149.5C40.8351 149.896 40.5233 149.931 40.2552 151.204L39.9528 151.314C39.8094 150.548 39.6785 149.989 39.4789 149.236L39.1609 149.353L39.1048 149.085C37.4276 144.327 37.4494 142.277 34.974 136.874C33.8204 134.416 32.6887 132.354 31.1018 130.14C28.4736 125.988 25.8673 124.16 21.0193 125.214L20.9414 124.73C22.6 124.2 25.8517 123.448 27.1362 122.609Z" fill="#151A3E"/>
<path d="M40.5296 143.67C41.0284 145.525 41.6551 147.645 42.0541 149.5C40.8351 149.896 40.5233 149.931 40.2552 151.204L39.9528 151.314C39.8094 150.548 39.6785 149.989 39.4789 149.236L39.1609 149.353L39.1048 149.085C39.4478 146.926 37.8734 145.383 39.7065 143.581L40.5296 143.67Z" fill="#191D3D"/>
<path d="M42.2225 172.658L43.2638 172.877L43.5132 173.302L43.1235 174.24L43.4228 174.73C44.1149 173.984 43.8561 174.415 44.1087 173.331L44.1118 173.594C44.8569 173.766 44.5483 173.585 45.0627 174.173C44.754 174.964 44.1897 176.503 43.641 177.118C40.62 180.488 31.2608 188.358 28.642 180.718C32.3645 177.571 36.8944 183.425 42.2225 172.658Z" fill="#C35326"/>
<path d="M43.9839 159.325C44.6106 160.304 44.436 163.072 44.383 164.367C44.9504 165.43 45.2248 166.276 46.2474 166.821C47.9621 167.003 47.9839 166.578 49.39 166.34C47.6566 169.147 46.5498 171.692 45.0627 174.173C44.5483 173.585 44.8569 173.766 44.1118 173.594L44.1087 173.331C43.8561 174.415 44.1149 173.984 43.4228 174.73L43.1235 174.24L43.5132 173.302L43.2638 172.877L42.2225 172.658C44.0151 167.395 43.9777 164.796 43.9839 159.325Z" fill="#B33A40"/>
<path d="M22.759 86.8743C26.0574 82.9629 29.4744 78.8465 33.253 75.4045C30.3131 89.3348 32.988 93.5846 37.0035 106.563L46.0292 135.841C46.8772 138.604 51.3572 154.25 52.2177 155.914L52.7165 156.259L53.0626 155.909L53.4305 156.357L55.0205 156.189L55.2886 156.778C57.1903 157.325 58.135 157.252 60.1303 157.255C55.4943 159.998 52.7072 161.903 49.39 166.34C47.9839 166.578 47.9621 167.003 46.2474 166.821C45.2248 166.276 44.9504 165.43 44.383 164.367C44.436 163.072 44.6106 160.304 43.9839 159.325C43.7283 146.025 37.8796 127.003 25.2468 120.648C22.8961 111.07 17.4901 98.9019 20.6888 89.7749C21.3217 89.1787 22.2414 87.6612 22.759 86.8743Z" fill="#C85333"/>
<path d="M96.85 52.068C96.7845 51.7946 96.8313 51.7367 96.8749 51.4325C99.1321 50.9934 100.822 50.1668 103.905 49.4653C112.903 47.4208 123.016 46.4497 132.248 45.4162C132.613 45.6287 132.915 45.8042 133.152 45.9423C131.238 46.1477 123.331 46.8053 122.34 47.6458C122.365 48.8008 122.421 49.1493 122.667 50.2809L122.938 51.6126C123.821 55.4255 125.832 62.1418 120.485 63.7244C117.08 64.7323 113.648 65.7028 110.178 66.5275C104.485 67.5114 88.4978 73.2534 83.4222 71.1921C82.1222 70.6641 77.081 62.0673 75.9711 60.4223C75.2166 59.402 74.6055 58.7989 73.7326 57.8967L73.7762 57.6199C74.6554 57.6545 74.9765 58.059 75.6718 58.6225C76.0272 58.4081 76.0428 58.4464 76.3109 58.1479C76.2236 57.8078 76.2672 57.8452 76.3109 57.4734C78.7614 56.1869 93.2366 52.949 96.85 52.068Z" fill="#EF8C29"/>
<path d="M96.85 52.068C96.7845 51.7946 96.8313 51.7367 96.8749 51.4325C99.1321 50.9934 100.822 50.1668 103.905 49.4653C112.903 47.4208 123.016 46.4497 132.248 45.4162C132.613 45.6287 132.915 45.8042 133.152 45.9423C131.238 46.1477 123.331 46.8053 122.34 47.6458C122.365 48.8008 122.421 49.1493 122.667 50.2809L122.938 51.6126C123.821 55.4255 125.832 62.1418 120.485 63.7244C117.08 64.7323 113.648 65.7028 110.178 66.5275C104.485 67.5114 88.4978 73.2534 83.4222 71.1921C82.1222 70.6641 77.081 62.0673 75.9711 60.4223C75.2166 59.402 74.6055 58.7989 73.7326 57.8967L73.7762 57.6199C74.6554 57.6545 74.9765 58.059 75.6718 58.6225C76.0272 58.4081 76.0428 58.4464 76.3109 58.1479L78.063 59.8875C79.9336 62.7087 81.5174 66.5025 83.946 68.8388C84.6849 69.5497 85.2336 69.6026 86.2219 69.5917C89.5111 69.5553 120.13 62.5825 121.479 60.9029C122.705 59.3795 121.931 56.3427 121.61 54.6145C121.458 53.4739 121.252 52.3023 121.065 51.1635C120.915 49.9181 120.928 48.8145 120.236 47.8141C118.458 47.7898 102.103 50.5835 100.741 51.3181L96.85 52.068Z" fill="#2E131D"/>
<path d="M100.741 51.3181C102.103 50.5835 118.458 47.7898 120.236 47.8141C120.928 48.8145 120.915 49.9181 121.065 51.1635L120.953 51.837C119.135 52.0567 117.19 52.2126 115.356 52.3749C110.025 52.8477 104.607 54.3325 99.3473 54.9789C93.1587 56.2065 87.0076 57.6021 80.8938 59.1642C80.024 59.3555 78.8674 59.5656 78.063 59.8875L76.3109 58.1479C76.2236 57.8078 76.2672 57.8452 76.3109 57.4734C78.7614 56.1869 93.2366 52.949 96.85 52.068L100.741 51.3181Z" fill="#F7D176"/>
<path d="M121.065 51.1635C121.252 52.3023 121.458 53.4739 121.61 54.6145C120.906 53.8024 120.569 53.0603 119.35 53.0949C107.815 53.4231 96.2046 56.7236 84.9405 59.056C82.7738 59.5045 83.1167 59.6407 80.8938 59.1642C87.0076 57.6021 93.1587 56.2065 99.3473 54.9789C104.607 54.3325 110.025 52.8477 115.356 52.3749C117.19 52.2126 119.135 52.0567 120.953 51.837L121.065 51.1635Z" fill="#EB7F29"/>
<path d="M116.569 56.2928C117.246 56.0176 118.019 56.1526 118.561 56.64C119.104 57.1278 119.319 57.8823 119.116 58.5832C118.917 59.2842 118.331 59.8081 117.61 59.9318C116.653 60.0973 115.724 59.5145 115.456 58.5801C115.188 57.6458 115.668 56.66 116.569 56.2928Z" fill="#C35326"/>
<path d="M87.0574 63.768C87.8587 63.2292 88.9436 63.4109 89.5266 64.1822C90.1096 64.9536 89.9881 66.046 89.2492 66.6705C88.7348 67.1065 88.0208 67.2218 87.3941 66.9706C86.7675 66.7191 86.3311 66.142 86.2594 65.4709C86.1908 64.7996 86.4963 64.1445 87.0574 63.768Z" fill="#C35326"/>
<path d="M133.152 45.9423C138.96 45.213 145.513 44.4943 151.265 45.6347C161.947 47.7524 168.104 56.1884 170.006 66.438C170.77 67.8938 172.307 73.3438 172.883 75.2842C174.645 81.1596 176.369 87.0466 178.055 92.9438C179.829 99.1948 182.386 107.854 183.627 114.086C184.378 116.193 185.784 122.312 186.09 124.58L184.684 124.229L182.776 123.939L181.706 123.978C181.251 119.318 177.672 106.635 176.459 101.303C176.244 99.9166 174.751 94.859 174.302 93.3284L173.65 92.563C173.504 86.6277 172.135 82.794 169.65 77.5864L169.055 76.4249C169.454 74.4075 166.52 68.0185 165.7 65.2977C163.696 61.3848 162.367 57.594 158.904 54.7015L158.405 54.5376C157.797 53.1706 157.208 52.6978 156.001 51.9028L154.224 51.339C153.018 51.6142 149.994 49.5426 147.484 49.4687C140.195 49.2546 131.942 50.333 124.722 51.4197C124.002 51.4475 123.652 51.4384 122.938 51.6126L122.667 50.2809C122.421 49.1493 122.365 48.8008 122.34 47.6458C123.331 46.8053 131.238 46.1477 133.152 45.9423Z" fill="#F7D176"/>
<path d="M133.152 45.9423C138.96 45.213 145.513 44.4943 151.265 45.6347C161.947 47.7524 168.104 56.1884 170.006 66.438C168.3 65.0477 168.007 60.6764 167.212 59.6741C166.757 60.4136 166.988 60.3781 166.445 60.5249C166.318 56.3717 164.918 57.9817 163.795 55.806C160.915 50.2273 155.303 46.296 148.594 46.3368C143.222 46.3693 128.089 46.3075 123.02 48.2015L122.667 50.2809C122.421 49.1493 122.365 48.8008 122.34 47.6458C123.331 46.8053 131.238 46.1477 133.152 45.9423Z" fill="#F1D396"/>
<path d="M165.7 65.2977C168.684 68.504 172.999 69.8597 170.093 75.9602C169.853 76.4648 169.741 77.0417 169.65 77.5864L169.055 76.4249C169.454 74.4075 166.52 68.0185 165.7 65.2977Z" fill="#F6C934"/>
<path d="M154.224 51.339C156.662 51.1941 158.106 50.9426 159.178 53.4249C159.1 53.812 159.013 54.335 158.904 54.7015L158.405 54.5376C157.797 53.1706 157.208 52.6978 156.001 51.9028L154.224 51.339Z" fill="#F1D396"/>
<path d="M174.433 92.3907C174.327 91.0583 174.19 88.0103 174.595 86.8721L174.981 86.7882C175.87 87.9635 176.478 90.7504 176.715 92.2379C175.674 92.6244 175.571 92.5574 174.433 92.3907Z" fill="#F6C934"/>
<path d="M55.0205 156.189C58.7024 154.384 61.9635 152.408 65.6766 150.749C66.668 150.306 66.4155 150.421 66.7989 149.27C68.5667 147.791 72.127 148.506 73.9384 147.779C96.0114 138.93 118.839 132.826 142.193 128.486C145.108 127.944 144.949 127.148 147.4 126.293C148.332 125.968 151.29 126.682 152.403 126.446C154.873 126.03 157.336 125.356 159.814 124.989C166.997 124.82 174.561 123.795 181.706 123.978L182.776 123.939L184.684 124.229L186.09 124.58C185.862 128.531 182.617 133.338 179.306 135.376L178.975 135.267C178.582 133.821 178.592 132.528 178.529 131.035C179.867 130.377 181.101 129.918 182.009 128.745L182.208 128.048C178.969 124.624 145.897 130.759 140.36 131.932C113.916 137.532 84.2578 144.939 60.1303 157.255C58.135 157.252 57.1903 157.325 55.2886 156.778L55.0205 156.189Z" fill="#C35326"/>
<path d="M181.706 123.978L182.776 123.939L184.684 124.229C184.883 125.137 184.525 126.653 184.222 127.537L183.751 127.729C183.602 127.59 182.451 126.548 182.302 126.534C177.812 126.115 173.126 127.33 168.752 126.101C167.418 125.725 165.928 125.647 164.534 125.567C165.155 124.81 178.788 125.209 181.706 123.978Z" fill="#C85333"/>
<path d="M35.3044 74.9473C37.2155 70.9478 39.931 69.8133 43.747 67.9131C45.2123 67.1829 49.3775 65.254 50.7742 65.8802C47.8031 67.2297 42.5623 69.1002 40.1617 70.6894C36.8819 72.9115 35.3636 76.1584 34.631 79.951C34.0386 82.9327 33.9794 85.9963 34.4595 88.9985C35.0768 92.7899 37.4525 99.9088 38.5998 103.862C40.9162 111.885 43.3168 119.884 45.8016 127.857C48.3767 136.234 51.7563 147.291 53.0626 155.909L52.7165 156.259L52.2177 155.914C51.3572 154.25 46.8772 138.604 46.0292 135.841L37.0035 106.563C32.988 93.5846 30.3131 89.3348 33.253 75.4045C29.4744 78.8465 26.0574 82.9629 22.759 86.8743C22.7371 84.2161 29.9389 77.4827 31.7939 75.2262C32.2429 74.6802 34.5406 74.9133 35.3044 74.9473Z" fill="#281428"/>
<path d="M121.838 103.356C125.514 110.045 130.976 115.85 138.508 118.072C138.998 118.215 139.493 118.345 139.989 118.46C144.12 119.599 147.92 119.35 152.101 118.704C157.354 117.647 160.968 115.025 165.136 111.933C161.772 118.827 154.068 122.493 146.81 123.266C145.753 123.378 144.11 123.303 143.209 123.544C140.372 123.194 137.582 122.545 134.882 121.609C134.486 121.309 132.472 120.336 131.808 119.94C127.559 117.402 123.927 114.906 121.648 110.359C121.704 107.589 121.236 106.437 121.838 103.356Z" fill="#C85333"/>
<path d="M121.648 110.359C118.767 106.336 117.199 99.6564 117.398 94.7374C117.501 92.2061 118.409 85.4577 120.307 83.7015C118.639 91.2378 118.705 96.2805 121.838 103.356C121.236 106.437 121.704 107.589 121.648 110.359Z" fill="#C35326"/>
<path d="M50.7742 65.8802C56.6572 63.9039 62.4155 61.606 68.3671 59.8215C70.1379 59.291 72.0802 58.6973 73.7326 57.8967C74.6055 58.7989 75.2166 59.402 75.9711 60.4223C71.597 59.6918 53.9978 66.1797 49.0532 67.6407C47.0735 68.226 41.9325 70.5993 40.1617 70.6894C42.5623 69.1002 47.8031 67.2297 50.7742 65.8802Z" fill="#F1D396"/>
<path d="M156.001 51.9028C157.208 52.6978 157.797 53.1706 158.405 54.5376C158.049 60.3441 152.4 61.3389 150.835 57.0941C151.571 53.7491 153.981 54.5491 156.001 51.9028Z" fill="#2E131D"/>
<path d="M124.722 51.4197C131.942 50.333 140.195 49.2546 147.484 49.4687C149.994 49.5426 153.018 51.6142 154.224 51.339L156.001 51.9028C153.981 54.5491 151.571 53.7491 150.835 57.0941C149.601 54.6516 151.652 54.0648 151.415 51.7837C148.064 47.447 129.068 53.0855 124.722 51.4197Z" fill="#EB7F29"/>
<path d="M143.209 123.544C140.372 123.194 137.582 122.545 134.882 121.609C135.612 124.132 141.224 124.159 143.209 123.544Z" fill="#EB7F29"/>
<path d="M52.5294 99.0038C58.5683 83.398 74.8175 75.1072 90.3996 81.6103C109.155 89.4377 113.349 111.999 100.894 127.243C99.1976 132.659 91.2008 137.389 86.119 139.072C71.2915 143.982 55.0485 135.716 50.5809 120.658C48.7197 114.393 48.6012 106.79 51.8124 100.851L52.5263 99.2621L52.5294 99.0038Z" fill="#1A203D"/>
<path d="M58.0259 95.0189C60.1615 90.3864 64.2799 87.1482 68.707 84.8615C70.0101 85.9773 70.5183 86.1478 72.074 86.8471C78.8019 85.1009 85.6233 85.3767 91.7308 88.901C93.5235 89.9354 97.5234 93.1869 97.9349 95.3168C97.433 95.6422 97.7105 95.5244 97.0433 95.5194L97.9443 97.0537L98.5834 96.3254C99.394 97.3514 99.6777 98.0567 100.442 99.0621C101.333 98.607 101.424 98.641 102.452 98.6021C102.926 99.2341 103.537 100.406 103.887 100.744C104.105 101.4 104.432 102.293 104.604 102.943C104.928 105.331 105.093 106.505 105.006 108.959C105.165 115.611 101.57 122.985 96.2919 127.029C94.1906 128.801 92.0644 130.049 89.6264 131.313C87.7433 132.002 86.4495 132.455 84.5134 132.94C79.8058 133.75 75.3569 133.203 70.7958 131.916C58.7897 126.078 53.3556 118.579 54.3252 104.875C54.7305 102.318 55.1046 100.803 56.0119 98.3963C56.4359 97.1622 57.1997 96.0118 58.0259 95.0189Z" fill="#6C9DAB"/>
<path d="M82.7426 92.5053C83.3443 92.4742 83.4783 92.3963 84.0021 92.5717L84.6038 92.3081C84.1331 91.5716 82.2188 91.3734 81.5766 90.7978C84.3856 90.861 92.3605 95.1794 94.175 97.3828C95.9552 99.542 93.857 106.909 95.0324 109.686C95.1882 109.158 95.7525 107.023 96.0082 106.74C96.2295 108.337 96.5382 110.56 96.3106 112.122C96.3044 111.011 96.2389 110.623 96.03 109.527C95.6902 109.853 95.7151 111.422 95.6715 112.061C95.4564 115.307 93.0277 118.512 90.8609 120.803C90.5928 121.084 90.7082 120.935 90.5118 121.345C82.6241 124.745 81.6234 124.695 73.6079 123.066C71.8433 121.741 69.3616 120.214 68.1769 118.516C67.9306 118.177 67.9867 118.149 67.675 118.009C64.654 116.643 66.8052 116.778 65.0811 114.716C64.2954 113.581 63.4693 105.316 64.0959 104.134C64.4014 101.099 63.9182 99.4999 66.1193 97.3507L66.8925 97.1444C69.7825 92.0466 77.4239 89.0764 82.7426 92.5053Z" fill="#1E4363"/>
<path d="M77.5392 94.7477C78.8362 95.5328 83.4815 95.0008 85.4332 96.0125C87.2663 96.9612 88.8532 98.4447 90.4775 99.6957C90.8953 100.748 91.3224 101.718 91.5936 102.819C92.4261 103.985 92.3294 103.522 92.4292 104.818C92.2452 105.146 91.9927 105.664 91.7526 105.919C91.8711 108.908 92.4354 112.136 90.2842 114.16C90.253 114.228 90.2219 114.297 90.1907 114.366C89.1681 116.131 88.5446 117.611 86.8984 118.799C85.8166 118.56 80.9905 119.017 79.4286 118.939L78.646 119.805C77.9913 120.055 77.1464 120.413 76.4855 120.549C76.049 119.696 75.8994 119.345 75.6063 118.433C73.901 118.204 72.4793 117.3 71.491 115.891C69.5643 114.955 68.6508 112.332 68.4077 110.319C68.3484 109.821 68.2923 109.322 68.2424 108.822L68.6228 109.046C68.4544 108.325 69.1434 102.87 69.3242 101.72C69.5674 100.177 69.6017 99.9802 70.6555 99.212L70.5401 97.7977C71.5253 96.7527 71.8526 96.9222 73.1683 96.9425C74.2439 96.1272 76.2423 95.1358 77.5392 94.7477Z" fill="#82D6E8"/>
<path d="M68.2424 108.822L68.6228 109.046C68.4544 108.325 69.1434 102.87 69.3242 101.72C69.5674 100.177 69.6017 99.9802 70.6555 99.212L71.1512 100.937L71.7279 103.196L73.8916 111.926C74.3156 113.22 74.6055 114.22 74.9329 115.543C75.1324 116.513 75.3039 117.492 75.6063 118.433C73.901 118.204 72.4793 117.3 71.491 115.891C69.5643 114.955 68.6508 112.332 68.4077 110.319C68.3484 109.821 68.2923 109.322 68.2424 108.822Z" fill="#467589"/>
<path d="M68.2424 108.822L68.6228 109.046C68.4544 108.325 69.1434 102.87 69.3242 101.72C69.5674 100.177 69.6017 99.9802 70.6555 99.212L71.1512 100.937C68.0616 103.687 68.9969 113.74 74.3374 115.877L74.9329 115.543C75.1324 116.513 75.3039 117.492 75.6063 118.433C73.901 118.204 72.4793 117.3 71.491 115.891C69.5643 114.955 68.6508 112.332 68.4077 110.319C68.3484 109.821 68.2923 109.322 68.2424 108.822Z" fill="#45738D"/>
<path d="M71.7279 103.196L73.8916 111.926C73.2338 111.805 73.3554 111.963 73.0499 111.595L72.763 111.239C70.5401 108.53 70.6243 107.076 70.9859 103.749L71.7279 103.196Z" fill="#45738D"/>
<path d="M77.5392 94.7477C78.8362 95.5328 83.4815 95.0008 85.4332 96.0125C87.2663 96.9612 88.8532 98.4447 90.4775 99.6957C90.8953 100.748 91.3224 101.718 91.5936 102.819C86.4869 101.381 77.9476 98.7679 73.1683 96.9425C74.2439 96.1272 76.2423 95.1358 77.5392 94.7477Z" fill="#467589"/>
<path d="M82.0598 116.156C85.8478 115.658 83.9616 115.175 86.278 113.559L87.3162 113.772L87.6124 115.197L88.1206 115.438C88.822 115.1 89.511 114.743 90.1907 114.366C89.1681 116.131 88.5446 117.611 86.8984 118.799C85.8166 118.56 80.9905 119.017 79.4286 118.939L82.0598 116.156Z" fill="#2B6783"/>
<path d="M88.6568 109.254C89.5952 108.132 90.7332 106.986 91.7526 105.919C91.8711 108.908 92.4354 112.136 90.2842 114.16C90.253 114.228 90.2219 114.297 90.1907 114.366C89.511 114.743 88.822 115.1 88.1206 115.438L87.6124 115.197L87.3162 113.772C89.2865 112.568 89.9693 111.208 88.6568 109.254Z" fill="#45738D"/>
<path d="M82.0598 116.156L88.6568 109.254C89.9693 111.208 89.2865 112.568 87.3162 113.772L86.278 113.559C83.9616 115.175 85.8478 115.658 82.0598 116.156Z" fill="#467589"/>
<path d="M66.1193 97.3507L66.8925 97.1444C69.7825 92.0466 77.4239 89.0764 82.7426 92.5053L82.9733 92.611C84.529 93.3113 86.8517 94.198 88.4884 94.6524L88.5664 94.9145C83.787 93.9044 79.9866 91.9437 75.6905 93.5868C77.4052 93.4409 81.3958 92.9174 82.7863 93.6042L82.858 93.9945C81.5797 94.0412 80.5073 93.7856 79.6218 94.6813C79.6998 94.6037 77.7668 94.7253 77.5392 94.7477C76.2423 95.1358 74.2439 96.1272 73.1683 96.9425C71.8526 96.9222 71.5253 96.7527 70.5401 97.7977L70.6555 99.212C69.6017 99.9802 69.5674 100.177 69.3242 101.72C69.1434 102.87 68.4544 108.325 68.6228 109.046L68.2424 108.822L67.5846 109.087L67.2011 108.727C66.9985 107.686 66.9922 107.399 66.3001 106.599C66.1692 106.342 66.1941 103.906 65.9011 102.854L65.4864 103.414L65.3804 103.153L65.025 103.008L64.0959 104.134C64.4014 101.099 63.9182 99.4999 66.1193 97.3507Z" fill="#214D69"/>
<path d="M66.1193 97.3507C66.0195 98.1224 65.9384 98.4138 65.608 99.1178L65.7421 99.3775C66.6805 98.4967 67.0328 97.8809 67.7436 96.8262L67.9867 97.0603L67.8776 97.3012C67.6033 97.9229 67.4007 98.1897 67.5098 98.8526C68.5292 99.2618 69.1871 98.9636 70.2814 98.4992L70.5401 97.7977L70.6555 99.212C69.6017 99.9802 69.5674 100.177 69.3242 101.72C69.1434 102.87 68.4544 108.325 68.6228 109.046L68.2424 108.822L67.5846 109.087L67.2011 108.727C66.9985 107.686 66.9922 107.399 66.3001 106.599C66.1692 106.342 66.1941 103.906 65.9011 102.854L65.4864 103.414L65.3804 103.153L65.025 103.008L64.0959 104.134C64.4014 101.099 63.9182 99.4999 66.1193 97.3507Z" fill="#25516C"/>
<path d="M64.0959 104.134L65.025 103.008L65.3804 103.153L65.4864 103.414C62.6213 108.266 68.4014 118.996 73.2805 121.241C77.6265 123.243 81.268 122.614 85.7543 122.127C86.3404 121.699 86.3372 121.65 86.7799 121.061L87.5344 120.888C90.3902 118.817 90.889 116.954 93.1743 115.03L94.5616 113.637C94.9108 113.081 95.2818 112.588 95.6715 112.061C95.4564 115.307 93.0277 118.512 90.8609 120.803C90.5928 121.084 90.7082 120.935 90.5118 121.345C82.6241 124.745 81.6234 124.695 73.6079 123.066C71.8433 121.741 69.3616 120.214 68.1769 118.516C67.9306 118.177 67.9867 118.149 67.675 118.009C64.654 116.643 66.8052 116.778 65.0811 114.716C64.2954 113.581 63.4693 105.316 64.0959 104.134Z" fill="#1E3759"/>
<path d="M90.4775 99.6957C91.6934 100.22 92.2483 100.319 92.7628 101.782C93.9444 105.148 94.7206 110.435 93.1899 113.747C93.0776 113.992 92.9592 114.235 92.8407 114.475C89.511 116.784 90.0036 119.979 85.8603 119.797L86.8984 118.799C88.5446 117.611 89.1681 116.131 90.1907 114.366C90.2219 114.297 90.253 114.228 90.2842 114.16C92.4354 112.136 91.8711 108.908 91.7526 105.919C91.9927 105.664 92.2452 105.146 92.4292 104.818C92.3294 103.522 92.4261 103.985 91.5936 102.819C91.3224 101.718 90.8953 100.748 90.4775 99.6957Z" fill="#214D69"/>
<path d="M66.3001 106.599C66.9922 107.399 66.9985 107.686 67.2011 108.727L67.5846 109.087L68.2424 108.822C68.2923 109.322 68.3484 109.821 68.4077 110.319C68.6508 112.332 69.5643 114.955 71.491 115.891C72.4793 117.3 73.901 118.204 75.6063 118.433C75.8994 119.345 76.049 119.696 76.4855 120.549C75.7185 120.595 75.3226 120.279 74.6399 119.815C71.8714 117.925 71.5814 119.425 69.1091 116.179C67.2916 113.792 65.8824 109.494 66.3001 106.599Z" fill="#214D69"/>
<path d="M79.4286 118.939C80.9905 119.017 85.8166 118.56 86.8984 118.799L85.8603 119.797C84.1518 120.102 80.7411 120.961 79.0232 120.541L78.646 119.805L79.4286 118.939Z" fill="#214D69"/>
<path d="M60.8255 111.219C60.3766 109.077 60.2269 106.884 60.3828 104.701C61.5395 89.5246 77.639 82.6855 90.2468 89.3261C93.2896 90.9277 94.8796 92.9501 97.0433 95.5194L97.9443 97.0537L99.6465 100.627C98.3995 100.775 97.7385 101.207 96.9778 100.079C96.4634 103.654 99.3379 111.538 96.3979 114.337C96.0768 113.785 96.267 112.878 96.3106 112.122C96.5382 110.56 96.2295 108.337 96.0082 106.74C95.7525 107.023 95.1882 109.158 95.0324 109.686C93.857 106.909 95.9552 99.542 94.175 97.3828C92.3605 95.1794 84.3856 90.861 81.5766 90.7978C82.2188 91.3734 84.1331 91.5716 84.6038 92.3081L84.0021 92.5717C83.4783 92.3963 83.3443 92.4742 82.7426 92.5053C77.4239 89.0764 69.7825 92.0466 66.8925 97.1444L66.1193 97.3507C63.9182 99.4999 64.4014 101.099 64.0959 104.134C63.4693 105.316 64.2954 113.581 65.0811 114.716L64.6415 115.042C64.2892 114.528 63.145 111.26 62.6119 110.122C61.6486 111.252 62.1349 110.993 60.8255 111.219Z" fill="#1A203D"/>
<path d="M96.3106 112.122C96.267 112.878 96.0768 113.785 96.3979 114.337C99.3379 111.538 96.4634 103.654 96.9778 100.079C97.7385 101.207 98.3995 100.775 99.6465 100.627C101.174 106.557 101.265 112.101 98.0628 117.56C95.3286 122.162 90.8454 125.459 85.6358 126.7C80.3545 128.007 74.7676 127.142 70.1286 124.301C65.7077 121.592 62.2253 117.077 60.9876 112.022C60.9222 111.757 60.8692 111.489 60.8255 111.219C62.1349 110.993 61.6486 111.252 62.6119 110.122C63.145 111.26 64.2892 114.528 64.6415 115.042L65.0811 114.716C66.8052 116.778 64.654 116.643 67.675 118.009C67.9867 118.149 67.9306 118.177 68.1769 118.516C69.3616 120.214 71.8433 121.741 73.6079 123.066C81.6234 124.695 82.6241 124.745 90.5118 121.345C90.7082 120.935 90.5928 121.084 90.8609 120.803C93.0277 118.512 95.4564 115.307 95.6715 112.061C95.7151 111.422 95.6902 109.853 96.03 109.527C96.2389 110.623 96.3044 111.011 96.3106 112.122Z" fill="#191D3D"/>
<path d="M72.8067 123.717C71.8714 123.261 67.0546 119.51 65.9073 118.647L65.979 118.496L68.1769 118.516C69.3616 120.214 71.8433 121.741 73.6079 123.066C81.6234 124.695 82.6241 124.745 90.5118 121.345C90.1844 121.905 89.6201 122.963 89.0029 122.946C86.8953 122.887 86.49 124.262 84.713 124.824C80.6351 126.115 76.5821 125.33 72.8067 123.717Z" fill="#1A203D"/>
<path d="M56.0119 98.3963C56.4359 97.1622 57.1997 96.0118 58.0259 95.0189C53.2652 109.163 59.3104 125.114 74.2065 129.866C83.5407 132.845 87.9616 129.993 96.2919 127.029C94.1906 128.801 92.0644 130.049 89.6264 131.313C87.7433 132.002 86.4495 132.455 84.5134 132.94C79.8058 133.75 75.3569 133.203 70.7958 131.916C58.7897 126.078 53.3556 118.579 54.3252 104.875C54.7305 102.318 55.1046 100.803 56.0119 98.3963Z" fill="#467589"/>
<path d="M100.442 99.0621C101.333 98.607 101.424 98.641 102.452 98.6021C102.926 99.2341 103.537 100.406 103.887 100.744C104.105 101.4 104.432 102.293 104.604 102.943L103.416 102.454C101.954 101.913 101.205 100.363 100.442 99.0621Z" fill="#82D6E8"/>
<path d="M103.416 102.454L104.604 102.943C104.928 105.331 105.093 106.505 105.006 108.959C103.728 105.844 103.996 105.609 103.416 102.454Z" fill="#6B98A8"/>
<path d="M51.8124 100.851L52.5263 99.2621C52.7009 100.44 52.782 101.488 52.81 102.689C52.8381 103.824 53.764 104.062 54.3252 104.875C53.3556 118.579 58.7897 126.078 70.7958 131.916C69.5206 132.035 67.1949 131.968 66.5963 133.215C78.5993 139.78 91.4035 136.249 100.894 127.243C99.1976 132.659 91.2008 137.389 86.119 139.072C71.2915 143.982 55.0485 135.716 50.5809 120.658C48.7197 114.393 48.6012 106.79 51.8124 100.851Z" fill="#C35326"/>
<path d="M51.8124 100.851L52.5263 99.2621C52.7009 100.44 52.782 101.488 52.81 102.689C52.8381 103.824 53.764 104.062 54.3252 104.875C53.3556 118.579 58.7897 126.078 70.7958 131.916C69.5206 132.035 67.1949 131.968 66.5963 133.215C63.3009 131.963 58.082 127.108 56.068 124.133C50.7056 116.224 50.266 109.819 51.8124 100.851Z" fill="#151A3E"/>
<path d="M68.707 84.8615C78.0131 80.0779 91.8929 82.4181 98.5086 90.6746C98.6021 91.24 98.705 91.8038 98.8172 92.366C99.157 94.1755 101.396 97.869 102.452 98.6021C101.424 98.641 101.333 98.607 100.442 99.0621C99.6777 98.0567 99.394 97.3514 98.5834 96.3254L97.9443 97.0537L97.0433 95.5194C97.7105 95.5244 97.433 95.6422 97.9349 95.3168C97.5234 93.1869 93.5235 89.9354 91.7308 88.901C85.6233 85.3767 78.8019 85.1009 72.074 86.8471C70.5183 86.1478 70.0101 85.9773 68.707 84.8615Z" fill="#A1CCD5"/>
<path d="M84.5134 132.94C86.4495 132.455 87.7433 132.002 89.6264 131.313C90.8735 131.75 90.8953 131.514 91.4097 132.379C90.6583 135.161 86.4869 134.656 84.5134 132.94Z" fill="#191D3D"/>
<path d="M98.5086 90.6746C101.096 93.6077 103.067 96.8717 103.887 100.744C103.537 100.406 102.926 99.2341 102.452 98.6021C101.396 97.869 99.157 94.1755 98.8172 92.366C98.705 91.8038 98.6021 91.24 98.5086 90.6746Z" fill="#B0CBCF"/>
<path d="M44.1461 76.4704C45.7298 76.1004 47.3853 76.6206 48.4734 77.828C49.5614 79.035 49.9075 80.7383 49.3744 82.2729C48.8413 83.8075 47.5131 84.9307 45.9138 85.2047C43.535 85.6108 41.2685 84.0559 40.7915 81.6941C40.3114 79.3324 41.7985 77.0186 44.1461 76.4704Z" fill="#281428"/>
<path d="M59.2168 141.877C60.707 141.143 62.5091 141.754 63.2417 143.243C63.9743 144.732 63.3602 146.533 61.8699 147.264C60.3828 147.995 58.584 147.382 57.8513 145.896C57.1218 144.409 57.7297 142.611 59.2168 141.877Z" fill="#C35326"/>
<path d="M173.329 114.272C174.233 113.958 175.237 114.159 175.951 114.797C176.668 115.435 176.98 116.41 176.768 117.345C176.559 118.279 175.858 119.026 174.938 119.296C173.563 119.7 172.116 118.934 171.68 117.569C171.243 116.205 171.976 114.741 173.329 114.272Z" fill="#C35326"/>
<path d="M143.696 209.073C156.562 205.863 184.447 197.604 194.616 187.664C196.375 185.947 194.585 182.942 194.13 179.916L197.591 182.651C198.825 182.878 198.52 182.646 199.333 183.395C199.704 184.595 199.461 184.39 200.266 185.158L200.446 184.319C202.52 189.079 202.077 202.906 202.121 208.412C202.133 210.195 199.433 217.703 198.233 219.226L197.806 219.099L196.3 220.178C195.764 221.243 194.486 222.333 193.507 223.002C191.72 224.602 187.097 227.405 184.821 228.359C183.446 229.256 181.388 230.207 179.879 230.959C179.356 227.716 178.788 224.48 178.18 221.252C177.08 215.387 175.92 208.287 168.023 210.62C155.861 214.211 143.902 218.319 131.462 220.972C128.946 221.508 124.931 222.76 122.493 222.915C119.734 224.09 119.032 224.313 117.57 227.079C115.338 231.313 120.5 245.61 118.583 248.549C117.336 249.001 116.781 249.004 115.481 249.135C107.578 250.142 100.108 250.861 92.1455 249.877C80.1643 250.045 49.6955 234.098 43.9715 223.13C39.5164 214.596 35.8936 197.817 33.465 188.083C37.0004 186.867 40.302 185.549 43.5942 183.778C44.1679 183.314 44.7758 182.647 45.39 182.607C48.8787 188.765 49.9511 193.21 54.8708 199.756L55.2761 200.452C59.4787 205.616 62.64 208.037 68.9252 210.701C69.8199 211.08 71.6594 211.922 72.498 212.094C74.6554 211.919 84.6849 215.769 89.4487 216.037C97.5858 216.496 103.41 215.796 111.434 214.856C114.112 214.542 120.326 212.785 121.847 213.901C126.773 213.051 131.662 212.017 136.51 210.804L143.696 209.073Z" fill="#EF8C29"/>
<path d="M43.5942 183.778C44.1679 183.314 44.7758 182.647 45.39 182.607C48.8787 188.765 49.9511 193.21 54.8708 199.756L55.2761 200.452C59.4787 205.616 62.64 208.037 68.9252 210.701C69.8199 211.08 71.6594 211.922 72.498 212.094C77.3678 214.222 82.4527 215.826 87.6623 216.879C86.833 218.119 86.4994 218.496 86.2032 220.007L86.4433 220.654C89.3209 225.264 91.8274 242.75 91.8836 248.399C91.921 249.113 91.8119 249.369 92.1455 249.877C80.1643 250.045 49.6955 234.098 43.9715 223.13C39.5164 214.596 35.8936 197.817 33.465 188.083C37.0004 186.867 40.302 185.549 43.5942 183.778Z" fill="#C85333"/>
<path d="M43.5942 183.778C44.1679 183.314 44.7758 182.647 45.39 182.607C48.8787 188.765 49.9511 193.21 54.8708 199.756L55.2761 200.452C59.4787 205.616 62.64 208.037 68.9252 210.701C69.8199 211.08 71.6594 211.922 72.498 212.094C77.3678 214.222 82.4527 215.826 87.6623 216.879C86.833 218.119 86.4994 218.496 86.2032 220.007C79.4566 219.397 66.1817 213.838 60.5356 209.892C58.9643 208.794 57.2309 207.632 55.7562 206.266C54.5216 205.12 52.7414 203.421 51.5817 202.128C51.0454 202.089 50.584 202.056 50.1974 202.029C50.8428 200.841 51.0205 200.597 50.5529 199.222C48.7758 194.028 45.0252 189.094 43.5942 183.778Z" fill="#EF8C29"/>
<path d="M86.4433 220.654C89.3209 225.264 91.8274 242.75 91.8836 248.399L91.4627 248.783L91.0512 248.384C90.2094 244.843 85.5298 222.489 86.4433 220.654Z" fill="#2E131D"/>
<path d="M45.0907 202.174C51.3104 201.829 54.5247 209.977 49.842 214.294C43.7283 214.664 40.3737 206.588 45.0907 202.174Z" fill="#1A203D"/>
<path d="M45.68 204.24C49.9106 204.302 50.4219 208.904 49.2248 212.125C45.0752 211.442 44.6792 207.636 45.68 204.24Z" fill="#6B98A8"/>
<path d="M143.696 209.073C156.562 205.863 184.447 197.604 194.616 187.664C196.375 185.947 194.585 182.942 194.13 179.916L197.591 182.651C198.825 182.878 198.52 182.646 199.333 183.395C199.704 184.595 199.461 184.39 200.266 185.158L200.446 184.319C202.52 189.079 202.077 202.906 202.121 208.412C202.133 210.195 199.433 217.703 198.233 219.226L197.806 219.099L196.3 220.178C195.764 221.243 194.486 222.333 193.507 223.002C193.899 221.596 195.539 219.855 195.973 218.234C196.765 215.286 196.687 195.207 194.807 194.037C194.498 194.393 194.189 194.749 193.881 195.105C191.839 195.968 186.875 198.458 184.802 198.339C183.299 198.872 181.507 199.801 179.985 200.453C159.004 209.445 136.547 214.763 114.028 218.161C108.354 219.017 102.437 220.242 96.6754 220.52C93.1743 220.704 89.6669 220.532 86.2032 220.007C86.4994 218.496 86.833 218.119 87.6623 216.879C82.4527 215.826 77.3678 214.222 72.498 212.094C74.6554 211.919 84.6849 215.769 89.4487 216.037C97.5858 216.496 103.41 215.796 111.434 214.856C114.112 214.542 120.326 212.785 121.847 213.901C126.773 213.051 131.662 212.017 136.51 210.804L143.696 209.073Z" fill="#F7D176"/>
<path d="M72.498 212.094C74.6554 211.919 84.6849 215.769 89.4487 216.037C97.5858 216.496 103.41 215.796 111.434 214.856C114.112 214.542 120.326 212.785 121.847 213.901C111.562 215.717 97.857 218.19 87.6623 216.879C82.4527 215.826 77.3678 214.222 72.498 212.094Z" fill="#1A203D"/>
<path d="M195.056 192.044L195.574 191.61C197.946 193.629 197.344 213.837 196.88 217.818C196.712 218.463 196.387 219.552 196.3 220.178C195.764 221.243 194.486 222.333 193.507 223.002C193.899 221.596 195.539 219.855 195.973 218.234C196.765 215.286 196.687 195.207 194.807 194.037C194.498 194.393 194.189 194.749 193.881 195.105C191.839 195.968 186.875 198.458 184.802 198.339C187.543 196.232 190.766 195.923 195.056 192.044Z" fill="#EB7F29"/>
<path d="M197.591 182.651C198.825 182.878 198.52 182.646 199.333 183.395C199.704 184.595 199.461 184.39 200.266 185.158L200.446 184.319C202.52 189.079 202.077 202.906 202.121 208.412C202.133 210.195 199.433 217.703 198.233 219.226L197.806 219.099C197.937 218.562 198.613 217.077 198.878 216.48C202.27 208.808 201.282 200.704 200.605 192.622C200.263 188.551 200.21 185.923 197.591 182.651Z" fill="#191D3D"/>
<path d="M122.493 222.915L122.708 222.34C131.431 219.806 140.21 218.168 148.812 215.833C155.191 214.101 163.091 211.019 169.42 208.935C183.751 211.311 177.304 225.808 180.886 229.17C182.832 229.204 182.981 228.066 184.821 228.359C183.446 229.256 181.388 230.207 179.879 230.959C179.356 227.716 178.788 224.48 178.18 221.252C177.08 215.387 175.92 208.287 168.023 210.62C155.861 214.211 143.902 218.319 131.462 220.972C128.946 221.508 124.931 222.76 122.493 222.915Z" fill="#EB7F29"/>
<path d="M119.908 176.212C122.094 173.999 125.218 173.492 128.173 172.861C138.415 170.675 149.638 173.696 155.689 182.661C156.338 183.621 156.99 184.097 157.086 185.25C156.544 185.768 156.534 185.803 155.886 186.161C155.315 187.093 154.969 187.496 154.171 188.244L154.28 188.642L155.892 189.242L156.082 189.2C156.65 190.97 157.597 195.122 157.881 196.995L158.424 199.274L158.452 200.427C157.058 201.669 144.011 205.345 143.135 204.776L142.489 205.091L142.143 204.72L141.741 204.71C141.803 205.964 142.38 206.402 143.088 207.475C143.658 208.339 143.359 208.369 143.696 209.073L136.51 210.804C135.496 210.295 135.683 210.566 135.169 209.72L135.612 208.239L134.795 207.224C132.061 207.804 127.073 209.019 124.504 209.241L124.027 208.883C123.023 209.46 122.823 209.876 121.748 209.073C121.545 208.366 121.211 206.364 121.055 205.557C120.669 203.859 120.198 199.752 119.425 198.588C117.816 198.157 117.451 197.135 115.26 197.369C114.405 197.461 112.769 197.059 111.896 196.83C106.742 197.834 85.4955 201.825 82.2531 197.155C81.614 194.504 83.8151 191.097 85.1276 188.816C85.1962 187.017 86.9172 185.362 88.2016 184.222C96.0051 177.28 106.752 174.916 116.85 177.338C118.116 177.641 119.403 177.995 120.7 178.1L120.834 177.753L119.908 176.212Z" fill="#C85333"/>
<path d="M128.401 193.142C137.152 191.164 147.135 188.444 155.886 186.161C155.315 187.093 154.969 187.496 154.171 188.244L154.28 188.642L155.892 189.242L156.082 189.2C156.65 190.97 157.597 195.122 157.881 196.995L158.424 199.274L158.452 200.427C157.058 201.669 144.011 205.345 143.135 204.776L142.489 205.091L142.143 204.72L141.741 204.71C141.803 205.964 142.38 206.402 143.088 207.475C143.658 208.339 143.359 208.369 143.696 209.073L136.51 210.804C135.496 210.295 135.683 210.566 135.169 209.72L135.612 208.239L134.795 207.224C132.061 207.804 127.073 209.019 124.504 209.241L124.027 208.883C123.023 209.46 122.823 209.876 121.748 209.073C121.545 208.366 121.211 206.364 121.055 205.557C120.669 203.859 120.198 199.752 119.425 198.588C117.816 198.157 117.451 197.135 115.26 197.369C114.405 197.461 112.769 197.059 111.896 196.83C116.794 196.11 123.603 194.388 128.401 193.142Z" fill="#191D3D"/>
<path d="M122.187 198.112C127.662 196.753 133.118 195.332 138.561 193.849C139.11 196.017 139.618 198.856 140.073 201.096L141.068 205.738C138.973 206.205 136.881 206.701 134.795 207.224C132.061 207.804 127.073 209.019 124.504 209.241L124.027 208.883C123.914 207.704 123.649 206.211 123.469 205.012L122.187 198.112Z" fill="#FAFBFA"/>
<path d="M140.073 201.096L141.068 205.738C138.973 206.205 136.881 206.701 134.795 207.224C132.061 207.804 127.073 209.019 124.504 209.241L124.027 208.883C123.914 207.704 123.649 206.211 123.469 205.012C126.514 204.104 138.611 202.745 140.073 201.096Z" fill="#B0CBCF"/>
<path d="M155.892 189.242L156.082 189.2C156.65 190.97 157.597 195.122 157.881 196.995L158.424 199.274L158.452 200.427C157.058 201.669 144.011 205.345 143.135 204.776C142.963 203.288 142.761 202.288 142.443 200.824C141.863 198.638 141.298 195.702 140.796 193.444C145.853 192.131 150.885 190.73 155.892 189.242Z" fill="#FAFBFA"/>
<path d="M157.881 196.995L158.424 199.274L158.452 200.427C157.058 201.669 144.011 205.345 143.135 204.776C142.963 203.288 142.761 202.288 142.443 200.824C144.675 200.35 156.915 198.147 157.881 196.995Z" fill="#B0CBCF"/>
<path d="M119.908 176.212C124.868 178.39 128.148 179.475 131.222 184.082C128.376 182.837 123.219 179.783 120.638 179.293C115.899 178.727 113.483 178.982 108.806 180.112C106.421 180.688 95.7869 185.337 99.8928 188.745C107.391 194.968 119.609 192.633 128.401 193.142C123.603 194.388 116.794 196.11 111.896 196.83C106.742 197.834 85.4955 201.825 82.2531 197.155C81.614 194.504 83.8151 191.097 85.1276 188.816C85.1962 187.017 86.9172 185.362 88.2016 184.222C96.0051 177.28 106.752 174.916 116.85 177.338C118.116 177.641 119.403 177.995 120.7 178.1L120.834 177.753L119.908 176.212Z" fill="#B33A40"/>
<path d="M119.908 176.212C124.868 178.39 128.148 179.475 131.222 184.082C128.376 182.837 123.219 179.783 120.638 179.293C108.155 173.6 93.4892 178.347 85.1276 188.816C85.1962 187.017 86.9172 185.362 88.2016 184.222C96.0051 177.28 106.752 174.916 116.85 177.338C118.116 177.641 119.403 177.995 120.7 178.1L120.834 177.753L119.908 176.212Z" fill="#2E131D"/>
<path d="M120.254 227.362C120.806 226.768 121.411 226.189 122.215 225.97C130.293 223.782 138.561 222.158 146.623 219.911C151.119 218.625 155.58 217.223 160.004 215.706C162.785 214.757 165.638 213.652 168.481 212.949C172.319 212 173.744 213.602 174.788 216.924C175.44 219.76 176.026 222.61 176.55 225.472L176.699 227.049C177.061 228.866 177.289 230.135 177.463 231.972L174.779 233.229C158.386 240.9 139.93 245.744 121.96 248.106C121.423 247.751 121.548 247.985 121.37 247.496C120.809 241.648 119.933 235.067 119.503 229.202C119.459 228.576 119.896 227.869 120.254 227.362Z" fill="#6C9DAB"/>
<path d="M120.254 227.362C120.806 226.768 121.411 226.189 122.215 225.97C130.293 223.782 138.561 222.158 146.623 219.911C151.119 218.625 155.58 217.223 160.004 215.706C162.785 214.757 165.638 213.652 168.481 212.949C172.319 212 173.744 213.602 174.788 216.924L174.155 217.286L173.881 217.053C172.824 216.167 169.89 214.446 168.547 214.934C153.972 220.229 139.113 224.795 123.718 227.005C122.518 227.177 121.473 227.369 120.254 227.362Z" fill="#A1CCD5"/>
<path d="M176.699 227.049C177.061 228.866 177.289 230.135 177.463 231.972L174.779 233.229L173.89 232.82L173.819 232.372C174.801 231.702 175.119 231.521 175.876 230.618C175.502 228.722 175.315 228.357 176.699 227.049Z" fill="#6B98A8"/>
<path d="M128.02 228.571C129.149 228.101 130.443 228.279 131.4 229.036C132.36 229.793 132.831 231.01 132.634 232.216C132.438 233.421 131.602 234.425 130.452 234.838C128.734 235.455 126.839 234.59 126.181 232.89C125.52 231.189 126.337 229.273 128.02 228.571Z" fill="#1A203D"/>
<path d="M128.504 230.122C129.423 229.68 130.53 230.073 130.966 230.998C131.403 231.923 131.001 233.027 130.072 233.456C129.152 233.881 128.064 233.485 127.631 232.569C127.2 231.653 127.59 230.56 128.504 230.122Z" fill="#6B98A8"/>
<path d="M167.674 217.014C169.407 216.83 170.985 218.029 171.271 219.749C171.555 221.468 170.452 223.113 168.752 223.5C167.558 223.771 166.314 223.359 165.519 222.43C164.721 221.501 164.506 220.207 164.958 219.071C165.41 217.935 166.458 217.143 167.674 217.014Z" fill="#1A203D"/>
<path d="M167.39 218.618C168.322 218.231 169.395 218.679 169.775 219.616C170.152 220.552 169.697 221.619 168.756 221.991C167.826 222.359 166.776 221.909 166.399 220.983C166.024 220.057 166.467 219.001 167.39 218.618Z" fill="#6B98A8"/>
<path d="M63.7592 7.68185C66.4872 4.34739 71.1419 3.31143 75.0265 5.17485C78.911 7.03827 81.0154 11.3168 80.1207 15.5298C79.3132 19.314 76.2579 22.2096 72.4325 22.8086C68.6103 23.4076 64.813 21.5863 62.8894 18.2297C60.9627 14.8731 61.3119 10.6772 63.7592 7.68185Z" fill="#EF8C29"/>
<path d="M80.1207 15.5298C79.3132 19.314 76.2579 22.2096 72.4325 22.8086C68.6103 23.4076 64.813 21.5863 62.8894 18.2297C60.9627 14.8731 61.3119 10.6772 63.7592 7.68185C63.6002 11.2317 63.8216 13.7829 66.3874 16.5579C68.0709 18.4117 70.4248 19.519 72.9252 19.6353C75.0202 19.7163 76.9937 18.9789 78.6523 17.6693C79.3226 17.1423 79.5782 16.1475 80.1207 15.5298Z" fill="#C85333"/>
<path d="M70.4996 5.28798C70.7895 5.2618 71.0764 5.2403 71.3663 5.22316C75.5003 4.98723 79.5907 8.32388 75.5096 12.2439C70.6835 12.7473 66.4809 9.35142 70.4996 5.28798Z" fill="#F7D176"/>
<path d="M49.284 176.981C50.5092 174.622 52.6261 169.574 54.6401 168.422C57.181 168.282 57.3493 170.518 57.9822 172.602L66.0382 204.716C62.9081 203.246 62.3657 203.024 60.3049 200.341C54.8116 194.251 51.3447 184.746 49.284 176.981Z" fill="#6C9DAB"/>
<path d="M49.284 176.981C50.5092 174.622 52.6261 169.574 54.6401 168.422C57.181 168.282 57.3493 170.518 57.9822 172.602C56.6229 172.974 55.3385 173.184 54.2566 174.035C53.0626 176.154 59.4725 196.125 60.3049 200.341C54.8116 194.251 51.3447 184.746 49.284 176.981Z" fill="#467589"/>
<path d="M95.2538 40.424C100.675 40.6456 103.665 41.8763 107.578 45.6153C105.33 45.9971 103.095 46.4338 100.869 46.9256C93.0932 48.7469 79.918 51.2922 72.5417 54.0508C72.7505 52.3313 72.5073 48.6107 73.0186 47.2699L73.4957 45.9859C76.1207 44.9471 77.9633 44.2627 80.6756 43.463C85.6015 41.9586 90.1034 40.7338 95.2538 40.424Z" fill="#6C9DAB"/>
<path d="M95.2538 40.424C100.675 40.6456 103.665 41.8763 107.578 45.6153C105.33 45.9971 103.095 46.4338 100.869 46.9256C97.7759 45.2136 98.9793 43.9221 94.0628 42.763L94.8765 41.9044C94.9482 41.3848 95.0761 40.9167 95.2538 40.424Z" fill="#B0CBCF"/>
<path d="M80.6756 43.463C85.6015 41.9586 90.1034 40.7338 95.2538 40.424C95.0761 40.9167 94.9482 41.3848 94.8765 41.9044L94.0628 42.763C90.9327 42.6293 82.0723 43.914 80.6756 43.463Z" fill="#B0CBCF"/>
<path d="M88.5352 150.06C90.0317 148.989 102.58 145.329 104.993 144.683L106.084 148.632L106.932 151.204L107.83 149.858C108.407 150.351 108.08 150.238 108.847 150.199C109.286 151.43 109.991 153.287 110.081 154.566C109.938 155.772 110.159 155.637 109.473 156.22L108.644 155.766L108.367 156.138C107.765 156.863 93.1992 161.081 92.4042 160.823C92.1797 160.401 91.9085 159.935 91.7308 159.5C91.313 157.949 90.6427 156.046 90.1408 154.489C89.617 152.895 89.1837 151.603 88.5352 150.06Z" fill="#FAFBFA"/>
<path d="M88.5352 150.06C90.0317 148.989 102.58 145.329 104.993 144.683L106.084 148.632C100.713 150.327 95.3909 152.44 90.1408 154.489C89.617 152.895 89.1837 151.603 88.5352 150.06Z" fill="#B0CBCF"/>
<path d="M106.932 151.204L107.83 149.858C108.407 150.351 108.08 150.238 108.847 150.199C109.286 151.43 109.991 153.287 110.081 154.566C109.938 155.772 110.159 155.637 109.473 156.22L108.644 155.766L108.367 156.138C107.946 155.076 107.272 152.414 106.932 151.204Z" fill="#191D3D"/>
<path d="M39.9528 155.895C40.3488 158.677 40.2615 161.622 40.1243 164.403C39.56 175.953 35.2171 176.225 25.4183 176.021C26.3287 174.008 26.6405 173.252 27.1798 171.128C28.2024 166.615 28.0122 163.731 27.9561 159.125C31.3356 157.87 36.0277 157.201 39.6161 156.391C39.7283 156.225 39.8406 156.06 39.9528 155.895Z" fill="#467589"/>
<path d="M123.088 139.514C124.288 140.166 124.429 142.2 124.709 143.569L126.072 149.162C126.393 150.404 126.614 150.455 126.278 151.573C121.863 153.062 115.815 154.406 111.154 155.72C110.275 155.198 110.655 155.535 110.081 154.566C109.991 153.287 109.286 151.43 108.847 150.199L108.329 148.281L106.917 144.126C112.285 142.554 117.745 141.169 123.088 139.514Z" fill="#FAFBFA"/>
<path d="M123.088 139.514C124.288 140.166 124.429 142.2 124.709 143.569C121.626 144.551 111.522 147.507 108.329 148.281L106.917 144.126C112.285 142.554 117.745 141.169 123.088 139.514Z" fill="#B0CBCF"/>
<path d="M126.608 138.654C130.256 138.464 137.654 135.733 141.841 135.673C142.617 136.433 142.52 136.886 142.817 138.066L143.057 139.623C143.272 140.491 143.808 142.86 144.12 143.546L144.949 147.133C142.293 147.748 131.154 150.589 129.292 150.754C128.641 150.15 128.653 149.852 128.447 148.99L126.885 143.32C126.437 141.926 125.878 140.614 125.95 139.182L126.608 138.654Z" fill="#FAFBFA"/>
<path d="M126.608 138.654C130.256 138.464 137.654 135.733 141.841 135.673C142.617 136.433 142.52 136.886 142.817 138.066L143.057 139.623C137.613 141.034 132.578 141.396 126.885 143.32C126.437 141.926 125.878 140.614 125.95 139.182L126.608 138.654Z" fill="#B0CBCF"/>
<path d="M119.425 198.588C120.198 199.752 120.669 203.859 121.055 205.557C121.211 206.364 121.545 208.366 121.748 209.073L121.495 209.797C118.898 210.771 107.559 212.325 104.432 212.646C104.37 211.046 104.155 209.257 103.996 207.646L104.123 207.288C103.781 205.282 103.752 203.869 103.687 201.822C105.171 201.23 117.027 199.053 119.425 198.588Z" fill="#FAFBFA"/>
<path d="M121.055 205.557C121.211 206.364 121.545 208.366 121.748 209.073L121.495 209.797C118.898 210.771 107.559 212.325 104.432 212.646C104.37 211.046 104.155 209.257 103.996 207.646L104.123 207.288C110.247 207.181 115.004 206.377 121.055 205.557Z" fill="#B0CBCF"/>
<path d="M171.96 184.095C172.466 186.042 172.992 188.312 173.585 190.208L173.728 191.35L174.707 194.813C171.424 196.24 164.516 198.977 161.021 199.857C160.385 199.239 160.313 198.342 160.117 197.447C158.383 198.18 159.534 197.611 158.424 199.274L157.881 196.995C157.597 195.122 156.65 190.97 156.082 189.2C156.94 188.491 157.083 188.411 158.118 188.001L158.555 188.263C160.799 187.979 169.853 185.023 171.96 184.095Z" fill="#FAFBFA"/>
<path d="M173.728 191.35L174.707 194.813C171.424 196.24 164.516 198.977 161.021 199.857C160.385 199.239 160.313 198.342 160.117 197.447L160.101 196.797C165.046 194.711 168.141 194.81 173.728 191.35Z" fill="#B0CBCF"/>
<path d="M156.082 189.2C156.94 188.491 157.083 188.411 158.118 188.001L158.555 188.263C157.975 189.788 159.615 194.937 160.101 196.797L160.117 197.447C158.383 198.18 159.534 197.611 158.424 199.274L157.881 196.995C157.597 195.122 156.65 190.97 156.082 189.2Z" fill="#191D3D"/>
<path d="M144.319 135.524L144.553 135.208C145.891 134.514 158.467 132.421 159.998 132.593C160.104 134.271 160.275 134.938 160.665 136.56C161.189 138.846 161.669 140.773 162.327 143.039C161.538 143.625 148.167 146.516 147.275 146.381C146.642 145.275 146.617 144.92 146.336 143.688C146.112 142.403 145.604 140.567 145.28 139.255C145.011 138.055 144.634 136.726 144.319 135.524Z" fill="#FAFBFA"/>
<path d="M144.319 135.524L144.553 135.208C145.891 134.514 158.467 132.421 159.998 132.593C160.104 134.271 160.275 134.938 160.665 136.56C157.688 136.985 147.652 138.349 145.28 139.255C145.011 138.055 144.634 136.726 144.319 135.524Z" fill="#B0CBCF"/>
<path d="M71.7653 156.15C73.5518 155.336 85.7792 150.531 86.6896 150.819L87.8992 154.705C88.451 156.563 89.1369 159.003 89.9818 160.71L89.9662 161.527C88.5508 162.798 78.911 165.19 76.3109 166.636C75.5658 165.146 74.6492 162.844 73.9602 161.26C73.3647 160.206 72.2798 157.386 71.7653 156.15Z" fill="#FAFBFA"/>
<path d="M71.7653 156.15C73.5518 155.336 85.7792 150.531 86.6896 150.819L87.8992 154.705C85.7636 156.303 77.3179 159.395 73.9602 161.26C73.3647 160.206 72.2798 157.386 71.7653 156.15Z" fill="#B0CBCF"/>
<path d="M180.787 86.9104C182.517 88.0751 183.181 88.5943 184.715 90.0046C188.833 94.1758 190.916 99.0805 192.175 104.766C193.285 109.053 193.516 111.154 193.578 115.703C191.951 115.876 189.647 115.556 188.556 115.723C186.623 109.388 183.851 98.8 182.255 92.2822L182.211 91.9484L180.787 86.9104Z" fill="#6C9DAB"/>
<path d="M180.787 86.9104C182.517 88.0751 183.181 88.5943 184.715 90.0046C188.833 94.1758 190.916 99.0805 192.175 104.766L191.854 105.312C190.832 105.851 191.355 105.744 190.224 105.676C189.17 105.004 188.503 101.581 187.636 100.09C185.999 97.2738 184.057 95.0083 182.255 92.2822L182.211 91.9484L180.787 86.9104Z" fill="#A1CCD5"/>
<path d="M180.787 86.9104C182.517 88.0751 183.181 88.5943 184.715 90.0046C183.368 89.9475 183.67 89.7668 182.66 90.3381C182.414 91.0013 182.305 91.2254 182.211 91.9484L180.787 86.9104Z" fill="#B0CBCF"/>
<path d="M87.2289 205.975C87.2009 204.621 87.1354 203.995 87.4908 202.655C90.1595 202.582 92.8282 202.556 95.4969 202.475C97.0464 202.429 99.7432 202.004 101.134 202.205C101.374 204.025 101.642 205.649 101.564 207.493L101.947 207.93C101.738 209.628 102.025 211.186 102.24 212.884C97.3394 213.498 92.0893 213.287 87.1946 212.71L87.2289 205.975Z" fill="#B0CBCF"/>
<path d="M87.2289 205.975C87.2009 204.621 87.1354 203.995 87.4908 202.655C90.1595 202.582 92.8282 202.556 95.4969 202.475C97.0464 202.429 99.7432 202.004 101.134 202.205C101.374 204.025 101.642 205.649 101.564 207.493C98.9575 206.93 89.536 208.089 87.2289 205.975Z" fill="#FAFBFA"/>
<path d="M162.034 131.828C166.118 131.812 170.202 130.885 173.934 130.841C174.333 132.327 174.76 133.829 175.072 135.334L176.306 140.968C172.36 141.663 168.403 142.3 164.441 142.88L162.748 136.274C162.414 135.089 161.597 132.849 162.034 131.828Z" fill="#FAFBFA"/>
<path d="M162.034 131.828C166.118 131.812 170.202 130.885 173.934 130.841C174.333 132.327 174.76 133.829 175.072 135.334C171.306 135.063 166.561 136.036 162.748 136.274C162.414 135.089 161.597 132.849 162.034 131.828Z" fill="#B0CBCF"/>
<path d="M175.097 183.205C177.99 182.132 181.943 180.693 184.518 179.076C184.93 181.331 185.401 183.576 185.934 185.806L186.205 186.928C186.414 188.55 186.567 188.054 185.974 189.261C185.008 189.986 184.603 190.149 183.493 190.65C181.429 192.009 178.941 193.02 176.665 194.002L175.911 190.627L175.346 188.807L175.01 190.086L175.405 190.718L174.928 191.822C174.311 191.624 174.124 190.848 173.853 190.229L173.585 190.208C172.992 188.312 172.466 186.042 171.96 184.095C173.326 183.05 173.572 182.537 175.097 183.205Z" fill="#FAFBFA"/>
<path d="M175.911 190.627C176.618 190.441 178.866 189.548 179.733 189.25C181.02 189.538 182.57 189.722 183.493 190.65C181.429 192.009 178.941 193.02 176.665 194.002L175.911 190.627Z" fill="#B0CBCF"/>
<path d="M171.96 184.095C173.326 183.05 173.572 182.537 175.097 183.205L174.411 183.569C174.105 184.951 175.203 187.266 175.346 188.807L175.01 190.086L175.405 190.718L174.928 191.822C174.311 191.624 174.124 190.848 173.853 190.229L173.585 190.208C172.992 188.312 172.466 186.042 171.96 184.095Z" fill="#191D3D"/>
<path d="M185.934 185.806L186.205 186.928C186.414 188.55 186.567 188.054 185.974 189.261C185.008 189.986 184.603 190.149 183.493 190.65C182.57 189.722 181.02 189.538 179.733 189.25C181.373 188.515 184.73 187.085 185.934 185.806Z" fill="#B0CBCF"/>
<path d="M73.1558 208.194C73.134 205.776 72.9126 201.114 73.8012 199.001C77.2431 199.867 81.4706 201.139 84.8065 201.854C85.1058 203.7 84.9655 210.196 84.9593 212.4C80.5166 211.163 77.3834 210.027 73.1558 208.194Z" fill="#B0CBCF"/>
<path d="M73.8012 199.001C77.2431 199.867 81.4706 201.139 84.8065 201.854C84.6631 202.692 84.6444 204.402 84.607 205.315C79.2571 203.728 76.5447 203.678 73.8012 199.001Z" fill="#FAFBFA"/>
<path d="M166.766 151.899C167.911 151.147 167.658 151.039 168.703 151.161C169.463 152.101 169.61 153.966 169.828 155.265C170.913 159.882 171.945 164.511 172.933 169.15C172.525 170.242 171.739 172.928 170.978 173.437L170.782 173.422C168.528 173.14 168.409 173.236 167.923 170.915C167.212 167.49 166.548 164.021 165.962 160.575C165.457 159.226 164.553 155.883 164.662 154.467C164.765 153.138 165.541 152.835 166.505 152.098L166.766 151.899Z" fill="#A1CCD5"/>
<path d="M165.962 160.575C165.457 159.226 164.553 155.883 164.662 154.467C164.765 153.138 165.541 152.835 166.505 152.098L167.739 157.674C168.83 160.884 170.377 169.96 170.782 173.422C168.528 173.14 168.409 173.236 167.923 170.915C167.212 167.49 166.548 164.021 165.962 160.575Z" fill="#6C9DAB"/>
<path d="M165.962 160.575C165.457 159.226 164.553 155.883 164.662 154.467C164.765 153.138 165.541 152.835 166.505 152.098L167.739 157.674L166.947 157.951C166.963 158.9 167.122 159.061 167.577 159.936C167.499 160.833 167.674 160.451 166.991 161.097L166.215 160.394L165.962 160.575Z" fill="#6B98A8"/>
<path d="M166.766 151.899C167.911 151.147 167.658 151.039 168.703 151.161C169.463 152.101 169.61 153.966 169.828 155.265C167.611 154.09 168.983 153.127 166.766 151.899Z" fill="#B0CBCF"/>
<path d="M76.3826 25.167L78.063 24.7696C79.3849 26.2665 83.2103 35.5284 84.2609 37.883C83.4223 38.4372 82.7551 38.5191 81.7824 38.751L77.7855 39.6514C77.3304 38.3823 77.2088 37.9058 76.975 36.5781C75.9181 33.4521 74.9267 29.3392 74.0537 26.0892L76.3826 25.167Z" fill="#A1CCD5"/>
<path d="M74.0537 26.0892L76.3826 25.167C77.8541 27.841 79.0232 31.111 80.1487 33.9938L77.7076 34.289C76.7474 35.5546 77.9944 34.6349 76.975 36.5781C75.9181 33.4521 74.9267 29.3392 74.0537 26.0892Z" fill="#6C9DAB"/>
<path d="M76.975 36.5781C77.9944 34.6349 76.7474 35.5546 77.7076 34.289L80.1487 33.9938C80.8782 35.7609 81.2492 36.9082 81.7824 38.751L77.7855 39.6514C77.3304 38.3823 77.2088 37.9058 76.975 36.5781Z" fill="#6B98A8"/>
<path d="M63.5691 159.877C65.4022 158.854 67.4942 157.316 69.4707 157.493C70.6399 158.275 70.4497 158.506 71.0888 159.978L71.6033 161.676C72.2206 163.214 73.1216 165.676 73.823 167.099C72.9563 168.066 69.1839 169.274 67.7685 169.805L66.4279 166.714C65.6734 165.264 64.2487 161.535 63.5691 159.877Z" fill="#B0CBCF"/>
<path d="M66.4279 166.714C67.4973 166.272 67.1356 166.637 67.597 165.628C67.3726 164.701 67.2915 164.528 67.357 163.596C68.3484 162.636 69.848 162.516 71.3726 161.788L71.6033 161.676C72.2206 163.214 73.1216 165.676 73.823 167.099C72.9563 168.066 69.1839 169.274 67.7685 169.805L66.4279 166.714Z" fill="#FAFBFA"/>
<path d="M188.375 174.77C189.46 175.45 189.557 176.466 189.868 177.825C190.252 179.538 190.604 181.258 190.922 182.984L191.346 185.784C190.498 186.494 189.694 187.344 188.662 187.571L188.228 187.022C187.683 186.751 187.558 186.447 187.215 185.934L187.078 185.725C186.679 186.139 186.514 186.446 186.205 186.928L185.934 185.806C185.401 183.576 184.93 181.331 184.518 179.076L185.447 178.826C186.055 177.506 186.249 176.661 186.629 175.266C187.125 174.968 187.561 175.028 188.15 175.015L188.375 174.77Z" fill="#FAFBFA"/>
<path d="M186.629 175.266C187.125 174.968 187.561 175.028 188.15 175.015L186.741 178.89C187.175 180.791 187.564 182.703 187.904 184.623C188.016 185.303 188.228 186.377 188.228 187.022C187.683 186.751 187.558 186.447 187.215 185.934L187.078 185.725C186.679 186.139 186.514 186.446 186.205 186.928L185.934 185.806C185.401 183.576 184.93 181.331 184.518 179.076L185.447 178.826C186.055 177.506 186.249 176.661 186.629 175.266Z" fill="#191D3D"/>
<path d="M190.922 182.984L191.346 185.784C190.498 186.494 189.694 187.344 188.662 187.571L188.228 187.022C188.228 186.377 188.016 185.303 187.904 184.623C189.108 184.117 189.921 183.855 190.922 182.984Z" fill="#B0CBCF"/>
<path d="M63.1482 56.702C65.0624 50.4551 67.3227 48.3511 73.4957 45.9859L73.0186 47.2699C72.5073 48.6107 72.7505 52.3313 72.5417 54.0508C69.4521 54.771 66.2066 55.7929 63.1482 56.702Z" fill="#467589"/>
<path d="M175.359 170.285C176.113 170.349 176.868 170.442 177.616 170.562C179.935 170.954 187.171 173.087 188.375 174.77L188.15 175.015C187.561 175.028 187.125 174.968 186.629 175.266C183.299 176.708 178.632 174.696 174.545 173.782C174.776 172.656 175.094 171.414 175.359 170.285Z" fill="#FAFBFA"/>
<path d="M188.556 115.723C189.647 115.556 191.951 115.876 193.578 115.703C193.569 122.208 192.5 127.23 188.247 132.165C190.997 125.493 190.311 122.422 188.556 115.723Z" fill="#45738D"/>
<path d="M169.195 145.324C170.389 145.109 171.708 144.844 172.893 144.675L168.581 147.613C167.156 148.918 162.714 152.343 161.454 149.594C162.037 146.552 166.62 145.698 169.195 145.324Z" fill="#B0CBCF"/>
<path d="M169.195 145.324C170.389 145.109 171.708 144.844 172.893 144.675L168.581 147.613L168.266 147.107C168.575 146.452 168.84 145.955 169.195 145.324Z" fill="#A4B4C8"/>
<path d="M71.0888 159.978C71.4972 158.044 70.5027 158.23 71.7653 156.15C72.2798 157.386 73.3647 160.206 73.9602 161.26C74.6492 162.844 75.5658 165.146 76.3109 166.636C75.385 166.921 74.6804 166.831 73.823 167.099C73.1216 165.676 72.2206 163.214 71.6033 161.676L71.0888 159.978Z" fill="#1A203D"/>
<path d="M159.998 132.593C160.503 132.382 161.049 131.95 161.513 131.624L162.034 131.828C161.597 132.849 162.414 135.089 162.748 136.274L164.441 142.88C163.493 143.225 163.365 143.157 162.327 143.039C161.669 140.773 161.189 138.846 160.665 136.56C160.275 134.938 160.104 134.271 159.998 132.593Z" fill="#1A203D"/>
<path d="M86.6896 150.819L87.0138 150.462C87.5376 150.365 88.0333 150.239 88.5352 150.06C89.1837 151.603 89.617 152.895 90.1408 154.489C90.6427 156.046 91.313 157.949 91.7308 159.5L90.5399 159.122C89.9319 160.044 90.3466 159.978 89.9818 160.71C89.1369 159.003 88.451 156.563 87.8992 154.705L86.6896 150.819Z" fill="#191D3D"/>
<path d="M144.319 135.524C144.634 136.726 145.011 138.055 145.28 139.255C145.604 140.567 146.112 142.403 146.336 143.688C146.084 144.2 145.925 144.527 145.623 145.02C144.89 143.718 145.301 144.005 144.12 143.546C143.808 142.86 143.272 140.491 143.057 139.623L142.817 138.066C143.032 136.534 143.259 136.627 144.319 135.524Z" fill="#1A203D"/>
<path d="M101.134 202.205C102.109 202.195 101.963 202.592 103.188 202.709L103.687 201.822C103.752 203.869 103.781 205.282 104.123 207.288L103.996 207.646L103.422 207.988C103.163 208.956 103.048 209.229 102.624 210.143L102.409 210.048C102.443 209.284 102.48 208.617 102.456 207.853L101.947 207.93L101.564 207.493C101.642 205.649 101.374 204.025 101.134 202.205Z" fill="#191D3D"/>
<path d="M37.9201 183.033C39.8562 183.117 40.1149 182.875 40.5202 184.648C39.2763 184.669 38.7868 184.907 37.9482 184.286L37.9201 183.033Z" fill="#191D3D"/>
<path d="M251.015 127.893C252.994 127.905 255.386 129.038 257.178 129.83C257.129 131.311 256.895 133.25 256.758 134.762C257.97 135.773 259.177 136.795 260.374 137.828C266.226 136.018 265.895 137.61 268.324 142.819C267.286 143.685 265.562 144.836 264.414 145.65C264.736 147.52 264.785 149.205 264.876 151.089C266.02 151.832 267.953 152.822 269.2 153.508C268.57 155.936 267.691 157.784 266.575 160.013L261.889 159.543C260.72 160.495 259.52 162.125 258.55 163.338C258.853 164.785 259.364 166.552 259.744 168.01C254.815 170.729 254.447 171.893 250.781 167.09L245.917 167.378C245.016 168.591 244.006 170.195 243.152 171.479C240.901 170.792 239.42 170.194 237.278 169.293C237.384 167.653 237.465 166.012 237.518 164.37C236.412 163.135 234.974 162.064 233.668 161.023L229.213 162.196C228.165 160.176 227.236 158.107 226.286 156.038L229.986 152.943C229.771 151.422 229.696 149.512 229.596 147.947C224.468 144.886 225.547 144.321 227.682 139.125C228.982 139.067 231.327 139.354 232.711 139.484L235.592 136.065C235.177 134.439 234.903 132.785 234.607 131.133C239.236 128.267 240.327 127.201 243.345 132.162L248.599 131.967C249.394 130.603 250.198 129.245 251.015 127.893ZM249.793 157.528C254.142 156.132 256.552 151.488 255.183 147.13C253.818 142.772 249.191 140.333 244.82 141.668C240.409 143.017 237.939 147.7 239.317 152.101C240.698 156.503 245.4 158.939 249.793 157.528Z" fill="#6C9DAB"/>
<path d="M215.258 49.6005C217.809 49.5809 218.756 49.6488 221.266 50.0761L222.547 54.4543C223.954 55.3267 225.637 56.2025 227.105 57.01C228.527 56.343 229.59 55.9606 231.074 55.4398C232.979 57.0664 234.189 58.8534 235.586 60.8839C234.709 62.1246 233.759 63.3205 232.83 64.5229C233.466 66.6447 233.593 67.5453 233.861 69.7659C235.215 70.5105 236.365 71.2049 237.674 72.0258C237.397 74.2514 236.78 76.4046 236.215 78.5766L231.539 78.5018C230.108 80.1277 229.447 80.8511 228.349 82.6886C228.596 84.1809 228.77 85.6993 228.964 87.2002C226.66 88.4073 225.35 88.9359 222.962 89.8304C222.002 88.714 221.004 87.4112 220.072 86.2509C218.495 86.1609 216.711 86.2316 215.115 86.2596L212.265 89.3429C210.127 88.2783 208.668 87.568 206.66 86.2275L207.608 81.9855L204.465 77.7133L200.004 77.5141C199.056 75.0935 198.772 73.6916 198.298 71.1965L202.301 68.9625L203.374 64.3041L200.649 60.6496C202.847 55.783 203.976 54.421 208.827 56.7466C210.367 56.0342 212.038 55.3875 213.619 54.7464C214.008 53.2722 214.541 50.8279 215.258 49.6005ZM219.249 78.4638C223.873 77.8339 227.134 73.604 226.563 68.9725C225.992 64.3409 221.802 61.0282 217.16 61.5396C214.108 61.8762 211.47 63.8297 210.258 66.6531C209.045 69.4767 209.447 72.7336 211.308 75.1786C213.17 77.6235 216.203 78.8786 219.249 78.4638Z" fill="#6C9DAB"/>
<path d="M189.613 22.6992C193.628 22.2735 192.758 22.2691 194.005 25.1776C197.881 27.6799 197.067 23.3537 200.952 27.5222C200.914 27.592 200.877 27.6618 200.839 27.7316L200.658 28.085C198.467 32.2956 201.946 31.7318 202.978 34.245C204.817 38.723 197.871 35.8906 200.284 42.1216L200.422 42.4648C200.194 43.5799 199.411 44.1967 198.598 45.0584C196.175 43.5303 194.149 42.7961 192.668 45.9538C192.73 46.1835 192.752 46.5759 192.777 46.8277L192.175 47.1409C191.15 47.096 190.373 47.1581 189.457 46.722C189.145 45.9762 188.961 45.4502 188.718 44.6794C186.295 42.1918 185.036 44.9069 183.243 43.8451C178.969 41.3116 186.099 39.2123 180.016 36.3958C179.864 36.1368 179.645 35.7871 179.592 35.4826C178.688 30.574 184.253 34.2896 182.289 27.8787L182.186 27.5527C183.306 23.8299 186.507 26.5224 188.599 25.3608C189.429 24.5714 189.422 24.1659 189.569 23.0523L189.613 22.6992ZM193.313 39.6439C195.988 38.5974 197.323 35.5914 196.303 32.9058C195.284 30.2205 192.291 28.8573 189.594 29.8506C186.86 30.8579 185.472 33.9022 186.507 36.6255C187.539 39.3491 190.601 40.7054 193.313 39.6439Z" fill="#EB7F29"/>
<path d="M206.619 123.974C211.081 118.685 202.436 118.446 205.977 114.909C209.809 114.447 209.422 112.997 208.608 109.814C210.245 106.542 212.412 109.704 214.887 108.723C216.78 107.973 216.01 105.919 217.6 105.819C221.528 105.573 219.639 108.113 221.915 109.66C223.159 109.906 223.592 109.654 224.795 109.24L225.222 109.091C227.47 112.519 226.557 111.053 225.777 114.189C225.235 116.368 230.953 118.013 227.598 121.064C224.904 121.257 225.494 121.545 223.916 123.601C226.226 129.409 221.787 127.854 217.815 127.112C217.294 128.655 217.204 129.863 215.474 130.243C213.756 129.454 213.263 125.413 209.407 126.016C207.948 126.244 207.396 125.022 206.619 123.974ZM218.177 122.576C219.926 122.055 221.26 120.629 221.659 118.848C222.061 117.066 221.469 115.207 220.109 113.987C218.75 112.767 216.839 112.375 215.109 112.964C212.506 113.85 211.09 116.655 211.926 119.274C212.761 121.892 215.542 123.36 218.177 122.576Z" fill="#EB7F29"/>
<path d="M213.946 27.8192C218.866 25.2561 226.008 22.2707 231.199 20.0495L228.652 26.3026C238.419 30.0843 244.932 34.4102 250.104 43.885C250.067 46.3216 251.208 51.2112 252.178 53.3916L252.115 53.7587C250.653 52.7599 250.715 51.847 249.188 51.2866C249.079 51.0772 248.97 50.869 248.857 50.6624C243.969 41.5575 237.076 37.4336 227.477 34.5508C227.33 36.7505 227.152 38.948 226.94 41.1427C222.996 37.2744 217.488 31.9481 213.946 27.8192Z" fill="#EB7F29" fill-opacity="0.988235"/>
<path d="M281.699 165.496C282.425 166.759 281.621 178.034 281.534 180.356C280.159 178.855 279.364 177.98 277.799 176.706C270.385 185.147 260.969 188.386 250.201 184.307L249.253 183.723L249.281 183.474C253.534 183.093 255.436 184.436 260.358 182.894C266.644 180.927 269.861 178.632 273.085 172.981C271.897 172.237 270.385 171.442 269.141 170.745C273.393 169.054 277.549 167.436 281.699 165.496Z" fill="#EB7F29"/>
<path d="M260.115 94.4302C261.353 93.1608 266.803 89.1397 268.53 87.823L269.421 88.8056C267.183 91.6346 264.973 94.485 262.787 97.3567C260.072 100.596 257.665 104.274 254.853 107.637L251.507 100.25C247.741 104 242.865 107.843 238.85 111.619C243.511 104.125 248.374 96.6598 252.966 89.1618C254.154 91.6969 255.302 94.2513 256.408 96.8237C257.621 96.1309 258.94 95.2121 260.115 94.4302Z" fill="#F6C934"/>
<path d="M215.561 183.785C217.996 184.389 226.747 189.453 229.391 190.917C230.123 188.833 230.451 186.086 230.8 183.862C232.989 185.064 249.303 199.417 250.719 201.553C245.712 198.947 240.627 196.489 235.473 194.181C234.32 196.109 233.166 198.926 232.256 201.037C226.591 195.324 221.372 189.477 215.561 183.785Z" fill="#F6C934"/>
<path d="M164.796 24.8706C165.778 22.3851 167.134 20.0638 168.815 17.986C171.923 14.1133 176.774 10.4965 181.847 9.96134C183.312 9.99936 184.811 9.75252 185.887 10.3151L185.765 11.1915C176.593 13.5277 173.158 18.6009 169.694 26.7589L174.648 27.9791C171.231 30.1978 166.925 33.6818 163.599 36.2343C162.355 32.2794 161.251 26.853 160.266 22.7185L164.796 24.8706Z" fill="#EB7F29"/>
<path d="M202.744 153.619L203.489 153.745C203.938 154.51 203.695 156.084 203.642 157.059L213.176 156.263C209.369 158.355 205.114 160.046 201.154 162.076C200.496 162.36 200.827 162.342 200.132 162.106C199.68 160.777 199.82 158.963 199.835 157.508C196.936 157.436 193.223 157.615 190.264 157.672C194.417 156.298 198.576 154.947 202.744 153.619Z" fill="#F6C934" fill-opacity="0.898039"/>
<path d="M250.104 43.885C252.913 48.7837 254.625 55.2706 254.344 60.9238C253.811 62.1786 253.774 62.8427 252.811 63.5754C252.175 58.3585 251.255 55.9802 249.188 51.2866C250.715 51.847 250.653 52.7599 252.115 53.7587L252.178 53.3916C251.208 51.2112 250.067 46.3216 250.104 43.885Z" fill="#EB7F29" fill-opacity="0.988235"/>
<path d="M273.543 113.195C274.229 113.134 273.989 113.133 274.672 113.303C274.447 114.582 271.51 116.45 270.313 117.321C269.244 117.367 266.927 117.341 266.117 117.799C265.278 118.058 265.063 118.314 264.502 118.022C264.879 116.94 266.768 115.214 267.669 114.292C269.562 113.892 271.626 113.551 273.543 113.195Z" fill="#F6C934"/>
<path d="M181.847 9.96134C185.962 9.03633 188.83 9.57269 192.83 10.5579C190.155 10.6732 188.415 10.7305 185.765 11.1915L185.887 10.3151C184.811 9.75252 183.312 9.99936 181.847 9.96134Z" fill="#C89466" fill-opacity="0.941176"/>
<path d="M252.811 63.5754C253.774 62.8427 253.811 62.1786 254.344 60.9238C254.348 65.0592 253.674 67.5594 252.739 71.5147C252.823 68.8693 252.848 66.222 252.811 63.5754Z" fill="#C89466" fill-opacity="0.929412"/>
<path d="M268.53 87.823C269.736 86.9039 270.94 85.9474 272.215 85.1324C271.351 86.2843 270.329 87.7235 269.421 88.8056L268.53 87.823Z" fill="#F1D396" fill-opacity="0.866667"/>
</svg>
